<svg width="60" height="63" viewBox="0 0 60 63" fill="none" xmlns="http://www.w3.org/2000/svg">
<path d="M46.562 38.4V51H43.646V40.74H41.126V38.4H46.562ZM58.1648 48.624V51H48.6428V49.11L53.5028 44.52C54.0188 44.028 54.3668 43.608 54.5468 43.26C54.7268 42.9 54.8168 42.546 54.8168 42.198C54.8168 41.694 54.6428 41.31 54.2948 41.046C53.9588 40.77 53.4608 40.632 52.8008 40.632C52.2488 40.632 51.7508 40.74 51.3068 40.956C50.8628 41.16 50.4908 41.472 50.1908 41.892L48.0668 40.524C48.5588 39.792 49.2368 39.222 50.1008 38.814C50.9648 38.394 51.9548 38.184 53.0708 38.184C54.0068 38.184 54.8228 38.34 55.5188 38.652C56.2268 38.952 56.7728 39.384 57.1568 39.948C57.5528 40.5 57.7508 41.154 57.7508 41.91C57.7508 42.594 57.6068 43.236 57.3188 43.836C57.0308 44.436 56.4728 45.12 55.6448 45.888L52.7468 48.624H58.1648Z" fill="white"/>
<path d="M27.508 50L26.6858 50.5692L26.984 51H27.508V50ZM20.488 39.86L21.3102 39.2908L21.012 38.86H20.488V39.86ZM12.74 39.86V38.86H11.74V39.86H12.74ZM12.74 50V51H13.74V50H12.74ZM4.316 50H3.316V51H4.316V50ZM4.316 13.6V12.6H3.316V13.6H4.316ZM28.444 15.212L28.0292 16.1219L28.0342 16.1242L28.444 15.212ZM33.904 33.828L33.0719 33.2733L33.0697 33.2767L33.904 33.828ZM28.392 38.3L27.9933 37.3829L26.8727 37.8701L27.5719 38.8722L28.392 38.3ZM36.556 50V51H38.4732L37.3761 49.4278L36.556 50ZM25.376 22.128L24.7319 22.8929L24.7378 22.8979L24.7439 22.9029L25.376 22.128ZM12.74 20.464V19.464H11.74V20.464H12.74ZM12.74 33.152H11.74V34.152H12.74V33.152ZM25.376 31.488L26.0201 32.2529L26.0201 32.2529L25.376 31.488ZM28.3302 49.4308L21.3102 39.2908L19.6658 40.4292L26.6858 50.5692L28.3302 49.4308ZM20.488 38.86H20.072V40.86H20.488V38.86ZM20.072 38.86H12.74V40.86H20.072V38.86ZM11.74 39.86V50H13.74V39.86H11.74ZM12.74 49H4.316V51H12.74V49ZM5.316 50V13.6H3.316V50H5.316ZM4.316 14.6H20.072V12.6H4.316V14.6ZM20.072 14.6C23.1869 14.6 25.8298 15.1193 28.0292 16.1219L28.8588 14.3021C26.3435 13.1554 23.4051 12.6 20.072 12.6V14.6ZM28.0342 16.1242C30.2714 17.1293 31.9508 18.5356 33.1172 20.3325L34.7948 19.2435C33.3958 17.0884 31.4007 15.4441 28.8538 14.2998L28.0342 16.1242ZM33.1172 20.3325C34.2798 22.1234 34.88 24.268 34.88 26.808H36.88C36.88 23.94 36.1976 21.4046 34.7948 19.2435L33.1172 20.3325ZM34.88 26.808C34.88 29.3428 34.2651 31.4836 33.072 33.2733L34.7361 34.3827C36.1776 32.2204 36.88 29.6812 36.88 26.808H34.88ZM33.0697 33.2767C31.9063 35.0375 30.2299 36.4105 27.9933 37.3829L28.7907 39.2171C31.3381 38.1095 33.3363 36.5012 34.7383 34.3793L33.0697 33.2767ZM27.5719 38.8722L35.7359 50.5722L37.3761 49.4278L29.2121 37.7278L27.5719 38.8722ZM36.556 49H27.508V51H36.556V49ZM28.352 26.808C28.352 24.5297 27.606 22.6566 26.0081 21.3531L24.7439 22.9029C25.7807 23.7487 26.352 24.9956 26.352 26.808H28.352ZM26.0201 21.3631C24.4545 20.0447 22.2628 19.464 19.604 19.464V21.464C22.0065 21.464 23.6628 21.9927 24.7319 22.8929L26.0201 21.3631ZM19.604 19.464H12.74V21.464H19.604V19.464ZM11.74 20.464V33.152H13.74V20.464H11.74ZM12.74 34.152H19.604V32.152H12.74V34.152ZM19.604 34.152C22.2628 34.152 24.4545 33.5713 26.0201 32.2529L24.7319 30.7231C23.6628 31.6233 22.0065 32.152 19.604 32.152V34.152ZM26.0201 32.2529C27.602 30.9209 28.352 29.0588 28.352 26.808H26.352C26.352 28.5786 25.7847 29.8365 24.7319 30.7231L26.0201 32.2529Z" fill="#D45F48"/>
</svg>
