<svg width="102" height="64" viewBox="0 0 102 64" fill="none" xmlns="http://www.w3.org/2000/svg">
<path d="M14.72 57.52L16.3234 54.9844L16.3234 54.9844L14.72 57.52ZM6.16 47.6L3.43807 48.8614L3.44738 48.8815L3.457 48.9014L6.16 47.6ZM6.16 16.48L3.45081 15.1915L3.4474 15.1986L3.44403 15.2058L6.16 16.48ZM14.72 6.48L16.3234 9.01558L16.3234 9.01558L14.72 6.48ZM39.52 6.48L37.9166 9.01558L37.9166 9.01558L39.52 6.48ZM48 16.48L45.2781 17.7414L45.2874 17.7615L45.297 17.7814L48 16.48ZM48 47.6L45.2908 46.3115L45.2874 46.3187L45.284 46.3258L48 47.6ZM39.52 57.52L37.9166 54.9844L37.9166 54.9844L39.52 57.52ZM35.12 45.6L32.6308 43.9255L32.6203 43.9412L32.6099 43.957L35.12 45.6ZM35.12 18.4L32.6099 20.043L32.6203 20.0588L32.6308 20.0745L35.12 18.4ZM19.12 18.4L16.6308 16.7255L16.6203 16.7412L16.6099 16.757L19.12 18.4ZM19.12 45.6L16.6099 47.243L16.6203 47.2588L16.6308 47.2745L19.12 45.6ZM27.12 57.96C22.9996 57.96 19.4312 56.9497 16.3234 54.9844L13.1166 60.0556C17.2621 62.677 21.9604 63.96 27.12 63.96V57.96ZM16.3234 54.9844C13.2259 53.0257 10.7287 50.1735 8.86301 46.2986L3.457 48.9014C5.75126 53.6665 8.96075 57.4276 13.1166 60.0556L16.3234 54.9844ZM8.88193 46.3386C7.07832 42.4466 6.12 37.697 6.12 32H0.12C0.12 38.3563 1.18835 44.0067 3.43807 48.8614L8.88193 46.3386ZM6.12 32C6.12 26.3015 7.07882 21.5849 8.87597 17.7542L3.44403 15.2058C1.18785 20.0151 0.12 25.6452 0.12 32H6.12ZM8.86919 17.7685C10.738 13.8393 13.2353 10.9683 16.3234 9.01558L13.1166 3.94442C8.95134 6.57834 5.74204 10.374 3.45081 15.1915L8.86919 17.7685ZM16.3234 9.01558C19.4312 7.05033 22.9996 6.04 27.12 6.04V0.039999C21.9604 0.039999 17.2621 1.323 13.1166 3.94442L16.3234 9.01558ZM27.12 6.04C31.2404 6.04 34.8088 7.05033 37.9166 9.01558L41.1234 3.94442C36.9779 1.323 32.2796 0.039999 27.12 0.039999V6.04ZM37.9166 9.01558C40.9971 10.9635 43.4631 13.8249 45.2781 17.7414L50.7219 15.2186C48.4836 10.3884 45.2962 6.58311 41.1234 3.94442L37.9166 9.01558ZM45.297 17.7814C47.1379 21.6049 48.12 26.3113 48.12 32H54.12C54.12 25.6353 53.0221 19.9951 50.703 15.1785L45.297 17.7814ZM48.12 32C48.12 37.6871 47.1384 42.4268 45.2908 46.3115L50.7092 48.8885C53.0216 44.0266 54.12 38.3662 54.12 32H48.12ZM45.284 46.3258C43.4722 50.1879 41.0066 53.0305 37.9166 54.9844L41.1234 60.0556C45.2867 57.4229 48.4745 53.6521 50.716 48.8742L45.284 46.3258ZM37.9166 54.9844C34.8088 56.9497 31.2404 57.96 27.12 57.96V63.96C32.2796 63.96 36.9779 62.677 41.1234 60.0556L37.9166 54.9844ZM27.12 53C31.578 53 35.174 50.9954 37.6301 47.243L32.6099 43.957C31.226 46.0713 29.4887 47 27.12 47V53ZM37.6092 47.2745C40.0806 43.6008 41.08 38.3424 41.08 32H35.08C35.08 37.9243 34.1061 41.7326 32.6308 43.9255L37.6092 47.2745ZM41.08 32C41.08 25.6576 40.0806 20.3992 37.6092 16.7255L32.6308 20.0745C34.1061 22.2674 35.08 26.0757 35.08 32H41.08ZM37.6301 16.757C35.174 13.0046 31.578 11 27.12 11V17C29.4887 17 31.226 17.9287 32.6099 20.043L37.6301 16.757ZM27.12 11C22.7008 11 19.1269 13.0151 16.6308 16.7255L21.6092 20.0745C23.0598 17.9182 24.8192 17 27.12 17V11ZM16.6099 16.757C14.2103 20.4231 13.24 25.6672 13.24 32H19.24C19.24 26.0662 20.1897 22.2435 21.6301 20.043L16.6099 16.757ZM13.24 32C13.24 38.3328 14.2103 43.5769 16.6099 47.243L21.6301 43.957C20.1897 41.7565 19.24 37.9338 19.24 32H13.24ZM16.6308 47.2745C19.1269 50.9849 22.7008 53 27.12 53V47C24.8192 47 23.0598 46.0818 21.6092 43.9255L16.6308 47.2745ZM98.7881 49.44H101.788V46.44H98.7881V49.44ZM98.7881 60V63H101.788V60H98.7881ZM56.4681 60H53.4681V63H56.4681V60ZM56.4681 51.6L54.4083 49.419L53.4681 50.3069V51.6H56.4681ZM78.0681 31.2L80.128 33.381L80.1332 33.3761L80.1384 33.3712L78.0681 31.2ZM82.7081 25.6L85.3728 26.9783L85.3822 26.96L85.3914 26.9416L82.7081 25.6ZM81.5881 15.76L79.6839 18.0782L79.7287 18.115L79.775 18.1501L81.5881 15.76ZM68.3081 15.36L69.5606 18.086L69.5907 18.0722L69.6205 18.0577L68.3081 15.36ZM63.3481 19.52L61.7237 22.0421L64.1275 23.5903L65.7893 21.2637L63.3481 19.52ZM53.9081 13.44L51.4183 11.7665L49.7117 14.3056L52.2837 15.9621L53.9081 13.44ZM62.9481 5.84L64.2291 8.55274L64.2445 8.54551L64.2597 8.5381L62.9481 5.84ZM87.0281 5.12L85.801 7.85752L85.8292 7.87018L85.8577 7.88225L87.0281 5.12ZM94.3081 10.88L91.8283 12.5684L91.8491 12.5988L91.8705 12.6287L94.3081 10.88ZM95.0281 28.16L97.7327 29.4582L97.7327 29.4582L95.0281 28.16ZM87.5881 37.28L85.548 35.0805L85.5383 35.0895L85.5287 35.0986L87.5881 37.28ZM74.7081 49.44L72.6487 47.2586L67.1604 52.44H74.7081V49.44ZM95.7881 49.44V60H101.788V49.44H95.7881ZM98.7881 57H56.4681V63H98.7881V57ZM59.4681 60V51.6H53.4681V60H59.4681ZM58.528 53.781L80.128 33.381L76.0083 29.019L54.4083 49.419L58.528 53.781ZM80.1384 33.3712C82.5089 31.1109 84.3425 28.9701 85.3728 26.9783L80.0435 24.2217C79.4737 25.3232 78.214 26.9158 75.9979 29.0288L80.1384 33.3712ZM85.3914 26.9416C86.367 24.9904 86.9081 22.9603 86.9081 20.88H80.9081C80.9081 21.8931 80.6492 23.0096 80.0248 24.2584L85.3914 26.9416ZM86.9081 20.88C86.9081 17.8655 85.8172 15.2027 83.4013 13.3699L79.775 18.1501C80.4524 18.664 80.9081 19.4145 80.9081 20.88H86.9081ZM83.4923 13.4418C81.246 11.5966 78.2319 10.92 74.9481 10.92V16.92C77.531 16.92 78.9436 17.4701 79.6839 18.0782L83.4923 13.4418ZM74.9481 10.92C72.0942 10.92 69.424 11.481 66.9957 12.6623L69.6205 18.0577C71.1389 17.319 72.8954 16.92 74.9481 16.92V10.92ZM67.0556 12.634C64.5802 13.7713 62.5264 15.5091 60.9069 17.7763L65.7893 21.2637C66.8365 19.7976 68.0894 18.762 69.5606 18.086L67.0556 12.634ZM64.9726 16.9979L55.5326 10.9179L52.2837 15.9621L61.7237 22.0421L64.9726 16.9979ZM56.398 15.1135C58.2578 12.3465 60.8362 10.1549 64.2291 8.55274L61.6671 3.12725C57.38 5.15172 53.9318 8.02686 51.4183 11.7665L56.398 15.1135ZM64.2597 8.5381C67.6298 6.89984 71.5692 6.04 76.1481 6.04V0.039999C70.807 0.039999 65.9464 1.04683 61.6365 3.14189L64.2597 8.5381ZM76.1481 6.04C79.9789 6.04 83.1709 6.67852 85.801 7.85752L88.2553 2.38247C84.6987 0.788145 80.6373 0.039999 76.1481 0.039999V6.04ZM85.8577 7.88225C88.5432 9.0202 90.4859 10.5967 91.8283 12.5684L96.7879 9.19162C94.717 6.14998 91.8063 3.88646 88.1986 2.35774L85.8577 7.88225ZM91.8705 12.6287C93.2239 14.5152 93.9481 16.7933 93.9481 19.6H99.9481C99.9481 15.6867 98.9124 12.1514 96.7457 9.13127L91.8705 12.6287ZM93.9481 19.6C93.9481 22.2035 93.4036 24.6117 92.3236 26.8618L97.7327 29.4582C99.2127 26.375 99.9481 23.0765 99.9481 19.6H93.9481ZM92.3236 26.8618C91.2817 29.0323 89.1172 31.77 85.548 35.0805L89.6283 39.4795C93.4191 35.9634 96.2145 32.6211 97.7327 29.4582L92.3236 26.8618ZM85.5287 35.0986L72.6487 47.2586L76.7676 51.6214L89.6476 39.4614L85.5287 35.0986ZM74.7081 52.44H98.7881V46.44H74.7081V52.44Z" fill="#D45F48"/>
</svg>
