<svg width="101" height="64" viewBox="0 0 101 64" fill="none" xmlns="http://www.w3.org/2000/svg">
<path d="M14.72 57.52L16.3234 54.9844L16.3234 54.9844L14.72 57.52ZM6.16 47.6L3.43807 48.8614L3.44738 48.8815L3.457 48.9014L6.16 47.6ZM6.16 16.48L3.45081 15.1915L3.4474 15.1986L3.44403 15.2058L6.16 16.48ZM14.72 6.48L16.3234 9.01558L16.3234 9.01558L14.72 6.48ZM39.52 6.48L37.9166 9.01558L37.9166 9.01558L39.52 6.48ZM48 16.48L45.2781 17.7414L45.2874 17.7615L45.297 17.7814L48 16.48ZM48 47.6L45.2908 46.3115L45.2874 46.3187L45.284 46.3258L48 47.6ZM39.52 57.52L37.9166 54.9844L37.9166 54.9844L39.52 57.52ZM35.12 45.6L32.6308 43.9255L32.6203 43.9412L32.6099 43.957L35.12 45.6ZM35.12 18.4L32.6099 20.043L32.6203 20.0588L32.6308 20.0745L35.12 18.4ZM19.12 18.4L16.6308 16.7255L16.6203 16.7412L16.6099 16.757L19.12 18.4ZM19.12 45.6L16.6099 47.243L16.6203 47.2588L16.6308 47.2745L19.12 45.6ZM27.12 57.96C22.9996 57.96 19.4312 56.9497 16.3234 54.9844L13.1166 60.0556C17.2621 62.677 21.9604 63.96 27.12 63.96V57.96ZM16.3234 54.9844C13.2259 53.0257 10.7287 50.1735 8.86301 46.2986L3.457 48.9014C5.75126 53.6665 8.96075 57.4276 13.1166 60.0556L16.3234 54.9844ZM8.88193 46.3386C7.07832 42.4466 6.12 37.697 6.12 32H0.12C0.12 38.3563 1.18835 44.0067 3.43807 48.8614L8.88193 46.3386ZM6.12 32C6.12 26.3015 7.07882 21.5849 8.87597 17.7542L3.44403 15.2058C1.18785 20.0151 0.12 25.6452 0.12 32H6.12ZM8.86919 17.7685C10.738 13.8393 13.2353 10.9683 16.3234 9.01558L13.1166 3.94442C8.95134 6.57834 5.74204 10.374 3.45081 15.1915L8.86919 17.7685ZM16.3234 9.01558C19.4312 7.05033 22.9996 6.04 27.12 6.04V0.039999C21.9604 0.039999 17.2621 1.323 13.1166 3.94442L16.3234 9.01558ZM27.12 6.04C31.2404 6.04 34.8088 7.05033 37.9166 9.01558L41.1234 3.94442C36.9779 1.323 32.2796 0.039999 27.12 0.039999V6.04ZM37.9166 9.01558C40.9971 10.9635 43.4631 13.8249 45.2781 17.7414L50.7219 15.2186C48.4836 10.3884 45.2962 6.58311 41.1234 3.94442L37.9166 9.01558ZM45.297 17.7814C47.1379 21.6049 48.12 26.3113 48.12 32H54.12C54.12 25.6353 53.0221 19.9951 50.703 15.1785L45.297 17.7814ZM48.12 32C48.12 37.6871 47.1384 42.4268 45.2908 46.3115L50.7092 48.8885C53.0216 44.0266 54.12 38.3662 54.12 32H48.12ZM45.284 46.3258C43.4722 50.1879 41.0066 53.0305 37.9166 54.9844L41.1234 60.0556C45.2867 57.4229 48.4745 53.6521 50.716 48.8742L45.284 46.3258ZM37.9166 54.9844C34.8088 56.9497 31.2404 57.96 27.12 57.96V63.96C32.2796 63.96 36.9779 62.677 41.1234 60.0556L37.9166 54.9844ZM27.12 53C31.578 53 35.174 50.9954 37.6301 47.243L32.6099 43.957C31.226 46.0713 29.4887 47 27.12 47V53ZM37.6092 47.2745C40.0806 43.6008 41.08 38.3424 41.08 32H35.08C35.08 37.9243 34.1061 41.7326 32.6308 43.9255L37.6092 47.2745ZM41.08 32C41.08 25.6576 40.0806 20.3992 37.6092 16.7255L32.6308 20.0745C34.1061 22.2674 35.08 26.0757 35.08 32H41.08ZM37.6301 16.757C35.174 13.0046 31.578 11 27.12 11V17C29.4887 17 31.226 17.9287 32.6099 20.043L37.6301 16.757ZM27.12 11C22.7008 11 19.1269 13.0151 16.6308 16.7255L21.6092 20.0745C23.0598 17.9182 24.8192 17 27.12 17V11ZM16.6099 16.757C14.2103 20.4231 13.24 25.6672 13.24 32H19.24C19.24 26.0662 20.1897 22.2435 21.6301 20.043L16.6099 16.757ZM13.24 32C13.24 38.3328 14.2103 43.5769 16.6099 47.243L21.6301 43.957C20.1897 41.7565 19.24 37.9338 19.24 32H13.24ZM16.6308 47.2745C19.1269 50.9849 22.7008 53 27.12 53V47C24.8192 47 23.0598 46.0818 21.6092 43.9255L16.6308 47.2745ZM82.7956 26.8L80.541 24.8209L76.9695 28.8897L82.3129 29.7609L82.7956 26.8ZM94.0756 32.32L91.8539 34.336L91.8633 34.3463L91.8728 34.3566L94.0756 32.32ZM95.4356 51.92L97.9768 53.5145L97.9838 53.5034L97.9906 53.4923L95.4356 51.92ZM87.5956 58.48L86.3202 55.7646L86.3122 55.7684L86.3042 55.7722L87.5956 58.48ZM63.1156 59.44L62.3022 62.3276L62.3261 62.3344L62.3502 62.3407L63.1156 59.44ZM53.4356 54.96L50.761 53.6011L49.5968 55.8927L51.6827 57.3946L53.4356 54.96ZM58.4756 45.04L60.2756 42.64L57.4186 40.4973L55.801 43.6811L58.4756 45.04ZM65.8356 48.8L64.9034 51.6515L64.9359 51.6621L64.9686 51.672L65.8356 48.8ZM82.1556 48.24L83.8032 50.7471L83.8278 50.7309L83.8522 50.7142L82.1556 48.24ZM68.5556 36H65.5556V39H68.5556V36ZM68.5556 27.44L66.3073 25.4538L65.5556 26.3046V27.44H68.5556ZM80.0756 14.4L82.3239 16.3862L86.7289 11.4H80.0756V14.4ZM56.2356 14.4H53.2356V17.4H56.2356V14.4ZM56.2356 4V0.999996H53.2356V4H56.2356ZM95.4356 4H98.4356V0.999996H95.4356V4ZM95.4356 12.4L97.6903 14.3791L98.4356 13.5299V12.4H95.4356ZM82.3129 29.7609C86.7389 30.4825 89.8107 32.0842 91.8539 34.336L96.2973 30.304C93.1139 26.7958 88.6656 24.7175 83.2784 23.8391L82.3129 29.7609ZM91.8728 34.3566C93.9233 36.5744 94.9956 39.3441 94.9956 42.88H100.996C100.996 37.9892 99.4546 33.7189 96.2784 30.2834L91.8728 34.3566ZM94.9956 42.88C94.9956 45.5776 94.2966 48.0467 92.8807 50.3477L97.9906 53.4923C99.9879 50.2466 100.996 46.6891 100.996 42.88H94.9956ZM92.8944 50.3255C91.5526 52.464 89.4304 54.3038 86.3202 55.7646L88.871 61.1954C92.8009 59.3495 95.9053 56.816 97.9768 53.5145L92.8944 50.3255ZM86.3042 55.7722C83.3482 57.182 79.5519 57.96 74.7956 57.96V63.96C80.1727 63.96 84.9098 63.0847 88.887 61.1878L86.3042 55.7722ZM74.7956 57.96C71.109 57.96 67.4729 57.4871 63.8811 56.5393L62.3502 62.3407C66.4384 63.4195 70.589 63.96 74.7956 63.96V57.96ZM63.929 56.5524C60.4149 55.5625 57.521 54.2048 55.1885 52.5254L51.6827 57.3946C54.6836 59.5552 58.243 61.1842 62.3022 62.3276L63.929 56.5524ZM56.1102 56.3189L61.1502 46.3989L55.801 43.6811L50.761 53.6011L56.1102 56.3189ZM56.6756 47.44C59.0951 49.2546 61.8473 50.6524 64.9034 51.6515L66.7678 45.9485C64.2772 45.1343 62.1228 44.0254 60.2756 42.64L56.6756 47.44ZM64.9686 51.672C68.0746 52.6096 71.2466 53.08 74.4756 53.08V47.08C71.838 47.08 69.25 46.697 66.7026 45.928L64.9686 51.672ZM74.4756 53.08C78.0612 53.08 81.2715 52.4108 83.8032 50.7471L80.5081 45.7329C79.3064 46.5225 77.3967 47.08 74.4756 47.08V53.08ZM83.8522 50.7142C86.5476 48.866 87.9556 46.1468 87.9556 42.88H81.9556C81.9556 44.1999 81.497 45.054 80.459 45.7658L83.8522 50.7142ZM87.9556 42.88C87.9556 39.6928 86.6667 36.9746 83.982 35.2121C81.5175 33.5942 78.2018 33 74.4756 33V39C77.7361 39 79.6604 39.5524 80.6892 40.2279C81.4979 40.7588 81.9556 41.4805 81.9556 42.88H87.9556ZM74.4756 33H68.5556V39H74.4756V33ZM71.5556 36V27.44H65.5556V36H71.5556ZM70.8039 29.4262L82.3239 16.3862L77.8273 12.4138L66.3073 25.4538L70.8039 29.4262ZM80.0756 11.4H56.2356V17.4H80.0756V11.4ZM59.2356 14.4V4H53.2356V14.4H59.2356ZM56.2356 7H95.4356V0.999996H56.2356V7ZM92.4356 4V12.4H98.4356V4H92.4356ZM93.181 10.4209L80.541 24.8209L85.0503 28.7791L97.6903 14.3791L93.181 10.4209Z" fill="#D45F48"/>
</svg>
