<svg width="82" height="64" viewBox="0 0 82 64" fill="none" xmlns="http://www.w3.org/2000/svg">
<path d="M14.72 57.52L16.3234 54.9844L16.3234 54.9844L14.72 57.52ZM6.16 47.6L3.43807 48.8614L3.44738 48.8815L3.457 48.9014L6.16 47.6ZM6.16 16.48L3.45081 15.1915L3.4474 15.1986L3.44403 15.2058L6.16 16.48ZM14.72 6.48L16.3234 9.01558L16.3234 9.01558L14.72 6.48ZM39.52 6.48L37.9166 9.01558L37.9166 9.01558L39.52 6.48ZM48 16.48L45.2781 17.7414L45.2874 17.7615L45.297 17.7814L48 16.48ZM48 47.6L45.2908 46.3115L45.2874 46.3187L45.284 46.3258L48 47.6ZM39.52 57.52L37.9166 54.9844L37.9166 54.9844L39.52 57.52ZM35.12 45.6L32.6308 43.9255L32.6203 43.9412L32.6099 43.957L35.12 45.6ZM35.12 18.4L32.6099 20.043L32.6203 20.0588L32.6308 20.0745L35.12 18.4ZM19.12 18.4L16.6308 16.7255L16.6203 16.7412L16.6099 16.757L19.12 18.4ZM19.12 45.6L16.6099 47.243L16.6203 47.2588L16.6308 47.2745L19.12 45.6ZM27.12 57.96C22.9996 57.96 19.4312 56.9497 16.3234 54.9844L13.1166 60.0556C17.2621 62.677 21.9604 63.96 27.12 63.96V57.96ZM16.3234 54.9844C13.2259 53.0257 10.7287 50.1735 8.86301 46.2986L3.457 48.9014C5.75126 53.6665 8.96075 57.4276 13.1166 60.0556L16.3234 54.9844ZM8.88193 46.3386C7.07832 42.4466 6.12 37.697 6.12 32H0.12C0.12 38.3563 1.18835 44.0067 3.43807 48.8614L8.88193 46.3386ZM6.12 32C6.12 26.3015 7.07882 21.5849 8.87597 17.7542L3.44403 15.2058C1.18785 20.0151 0.12 25.6452 0.12 32H6.12ZM8.86919 17.7685C10.738 13.8393 13.2353 10.9683 16.3234 9.01558L13.1166 3.94442C8.95134 6.57834 5.74204 10.374 3.45081 15.1915L8.86919 17.7685ZM16.3234 9.01558C19.4312 7.05033 22.9996 6.04 27.12 6.04V0.039999C21.9604 0.039999 17.2621 1.323 13.1166 3.94442L16.3234 9.01558ZM27.12 6.04C31.2404 6.04 34.8088 7.05033 37.9166 9.01558L41.1234 3.94442C36.9779 1.323 32.2796 0.039999 27.12 0.039999V6.04ZM37.9166 9.01558C40.9971 10.9635 43.4631 13.8249 45.2781 17.7414L50.7219 15.2186C48.4836 10.3884 45.2962 6.58311 41.1234 3.94442L37.9166 9.01558ZM45.297 17.7814C47.1379 21.6049 48.12 26.3113 48.12 32H54.12C54.12 25.6353 53.0221 19.9951 50.703 15.1785L45.297 17.7814ZM48.12 32C48.12 37.6871 47.1384 42.4268 45.2908 46.3115L50.7092 48.8885C53.0216 44.0266 54.12 38.3662 54.12 32H48.12ZM45.284 46.3258C43.4722 50.1879 41.0066 53.0305 37.9166 54.9844L41.1234 60.0556C45.2867 57.4229 48.4745 53.6521 50.716 48.8742L45.284 46.3258ZM37.9166 54.9844C34.8088 56.9497 31.2404 57.96 27.12 57.96V63.96C32.2796 63.96 36.9779 62.677 41.1234 60.0556L37.9166 54.9844ZM27.12 53C31.578 53 35.174 50.9954 37.6301 47.243L32.6099 43.957C31.226 46.0713 29.4887 47 27.12 47V53ZM37.6092 47.2745C40.0806 43.6008 41.08 38.3424 41.08 32H35.08C35.08 37.9243 34.1061 41.7326 32.6308 43.9255L37.6092 47.2745ZM41.08 32C41.08 25.6576 40.0806 20.3992 37.6092 16.7255L32.6308 20.0745C34.1061 22.2674 35.08 26.0757 35.08 32H41.08ZM37.6301 16.757C35.174 13.0046 31.578 11 27.12 11V17C29.4887 17 31.226 17.9287 32.6099 20.043L37.6301 16.757ZM27.12 11C22.7008 11 19.1269 13.0151 16.6308 16.7255L21.6092 20.0745C23.0598 17.9182 24.8192 17 27.12 17V11ZM16.6099 16.757C14.2103 20.4231 13.24 25.6672 13.24 32H19.24C19.24 26.0662 20.1897 22.2435 21.6301 20.043L16.6099 16.757ZM13.24 32C13.24 38.3328 14.2103 43.5769 16.6099 47.243L21.6301 43.957C20.1897 41.7565 19.24 37.9338 19.24 32H13.24ZM16.6308 47.2745C19.1269 50.9849 22.7008 53 27.12 53V47C24.8192 47 23.0598 46.0818 21.6092 43.9255L16.6308 47.2745ZM78.5481 4H81.5481V0.999996H78.5481V4ZM78.5481 60V63H81.5481V60H78.5481ZM65.5881 60H62.5881V63H65.5881V60ZM65.5881 14.4H68.5881V11.4H65.5881V14.4ZM54.3881 14.4H51.3881V17.4H54.3881V14.4ZM54.3881 4V0.999996H51.3881V4H54.3881ZM75.5481 4V60H81.5481V4H75.5481ZM78.5481 57H65.5881V63H78.5481V57ZM68.5881 60V14.4H62.5881V60H68.5881ZM65.5881 11.4H54.3881V17.4H65.5881V11.4ZM57.3881 14.4V4H51.3881V14.4H57.3881ZM54.3881 7H78.5481V0.999996H54.3881V7Z" fill="#D45F48"/>
</svg>
