<?xml version="1.0" standalone="no"?>
<!DOCTYPE svg PUBLIC "-//W3C//DTD SVG 20010904//EN"
 "http://www.w3.org/TR/2001/REC-SVG-20010904/DTD/svg10.dtd">
<svg version="1.0" xmlns="http://www.w3.org/2000/svg"
 width="960.000000pt" height="960.000000pt" viewBox="0 0 960.000000 960.000000"
 preserveAspectRatio="xMidYMid meet">
<metadata>
Created by potrace 1.11, written by Peter Selinger 2001-2013
</metadata>
<g transform="translate(0.000000,960.000000) scale(0.100000,-0.100000)"
fill="#000000" stroke="none">
<path d="M374 7901 c-2 -2 -4 -1455 -4 -3228 0 -2601 2 -3225 13 -3229 21 -8
117 -10 117 -2 0 4 11 3 25 -2 15 -6 27 -6 30 0 3 5 15 6 27 1 12 -4 38 -5 59
-1 20 4 44 3 52 -2 9 -5 18 -4 22 2 4 7 12 7 24 0 10 -5 21 -7 25 -3 7 7 76
10 76 3 0 -3 17 -4 38 -2 50 4 54 4 77 -1 11 -2 27 -1 36 4 8 4 21 4 29 -1 7
-4 24 -4 37 1 12 5 23 5 23 1 0 -5 22 -6 50 -2 28 4 50 4 50 0 0 -6 87 -3 106
4 6 2 17 0 24 -4 8 -5 22 -4 31 1 11 6 20 5 24 -1 4 -7 12 -7 24 0 10 5 21 7
24 4 9 -10 42 -12 58 -3 8 4 21 4 29 -1 7 -4 24 -4 37 1 12 5 23 5 23 0 0 -5
18 -5 39 -1 21 4 46 3 54 -2 9 -5 18 -4 22 2 4 7 12 7 24 0 10 -5 21 -7 25 -3
7 7 76 10 76 3 0 -7 66 -4 77 3 5 3 15 2 22 -2 7 -5 28 -5 47 -1 19 4 34 4 34
0 0 -5 13 -5 30 0 16 5 30 6 30 2 0 -4 14 -7 30 -7 17 0 30 3 30 7 0 4 11 3
25 -2 15 -6 27 -6 30 0 3 5 15 6 26 1 12 -4 43 -4 70 -1 27 4 49 4 49 0 0 -4
13 -5 29 -2 l28 4 1 156 c1 87 1 173 1 192 -1 35 0 207 1 265 0 17 -1 41 -3
55 -2 14 0 37 4 53 4 15 5 27 1 27 -4 0 -6 35 -5 77 3 118 3 136 0 163 -2 14
0 37 4 53 4 15 5 27 1 27 -4 0 -6 35 -5 77 3 118 3 136 0 163 -2 14 0 37 4 53
4 15 5 27 1 27 -8 0 -6 164 2 186 3 8 1 12 -4 9 -6 -4 -7 2 -2 16 l9 22 371 0
c205 0 374 -2 376 -4 3 -4 72 -105 160 -234 23 -33 45 -64 49 -70 5 -5 100
-143 212 -305 112 -162 232 -335 267 -384 34 -50 65 -95 67 -100 2 -6 16 -27
31 -46 15 -19 62 -87 105 -150 44 -63 81 -117 84 -120 3 -3 11 -13 16 -22 38
-65 122 -178 133 -178 6 0 12 -4 12 -10 0 -6 9 -6 25 0 15 6 25 6 25 0 0 -5
12 -5 30 0 16 5 30 5 30 2 0 -8 64 -7 77 1 5 3 15 2 22 -2 7 -5 28 -5 47 -1
19 4 34 4 34 0 0 -5 13 -5 30 0 16 5 30 6 30 2 0 -4 14 -7 30 -7 17 0 30 3 30
7 0 4 11 3 25 -2 15 -6 27 -6 30 0 3 5 15 6 26 1 12 -4 43 -4 70 -1 27 4 49 3
49 -1 0 -4 14 -4 30 1 16 5 30 6 30 2 0 -4 14 -7 30 -7 17 0 30 3 30 7 0 4 11
3 25 -2 15 -6 27 -6 30 0 3 5 15 6 26 1 12 -4 43 -4 70 -1 27 4 49 3 49 -1 0
-4 14 -4 30 1 17 5 30 6 30 2 0 -4 14 -7 30 -7 17 0 30 3 30 7 0 4 11 3 25 -2
15 -6 27 -6 30 0 3 5 15 6 26 1 12 -4 43 -4 70 -1 27 4 49 3 49 -1 0 -4 14 -4
30 1 16 5 30 6 30 2 0 -4 14 -7 30 -7 17 0 30 3 30 7 0 4 11 3 25 -2 15 -6 27
-6 30 0 3 5 15 6 27 1 12 -4 38 -5 59 -1 20 4 44 3 52 -2 9 -5 18 -4 22 2 4 7
12 7 24 0 10 -5 21 -7 25 -3 7 7 76 10 76 3 0 -3 17 -4 38 -2 50 4 54 4 77 -1
11 -2 27 -1 36 4 8 4 21 4 29 -1 7 -4 24 -4 37 1 12 5 23 5 23 1 0 -5 23 -6
50 -2 28 4 50 4 50 0 0 -6 107 -2 127 5 6 2 13 -1 16 -8 2 -8 5 -8 10 0 4 6 0
18 -8 26 -8 9 -15 18 -15 20 0 7 -144 213 -175 252 -14 17 -25 33 -25 37 0 4
-7 16 -14 25 -35 43 -126 175 -126 184 0 5 -4 9 -10 9 -5 0 -10 7 -10 15 0 8
-3 15 -7 15 -5 0 -24 25 -43 55 -19 30 -38 55 -42 55 -5 0 -8 4 -8 10 0 5 -19
36 -42 69 -24 32 -49 67 -56 77 -48 71 -134 193 -151 213 -12 13 -21 30 -21
37 0 7 -4 14 -8 16 -5 2 -35 41 -67 88 -32 47 -73 105 -90 130 -17 25 -53 77
-80 115 -26 39 -56 79 -66 91 -11 11 -19 24 -19 28 0 7 -40 67 -51 76 -3 3
-37 50 -75 105 -124 180 -148 215 -186 267 -21 29 -38 56 -38 62 0 6 23 24 50
41 28 16 50 33 50 37 0 4 5 8 10 8 6 0 16 4 23 10 345 276 524 490 679 810
102 210 155 385 203 670 14 83 20 190 20 380 0 208 -8 338 -29 445 -8 41 -24
126 -30 150 -14 66 -71 257 -84 281 -5 10 -10 21 -10 24 -3 37 -172 373 -202
400 -3 3 -25 34 -49 70 -109 160 -248 306 -423 447 -186 149 -419 284 -643
373 -11 4 -36 15 -55 23 -19 9 -48 19 -65 23 -16 4 -34 10 -40 14 -8 5 -71 26
-110 36 -5 1 -44 12 -85 24 -41 11 -86 23 -100 25 -14 3 -36 8 -50 11 -14 4
-38 8 -55 10 -16 2 -39 7 -50 11 -11 3 -29 7 -40 9 -11 1 -40 5 -65 9 -25 4
-56 8 -70 10 -60 7 -137 17 -160 20 -91 14 -425 18 -1758 19 -827 1 -1506 -1
-1508 -3z m3076 -645 c63 -4 129 -9 145 -11 17 -2 50 -6 75 -9 98 -11 326 -52
339 -61 4 -2 21 -7 38 -10 55 -9 227 -68 343 -118 14 -5 28 -10 33 -9 4 1 7
-3 7 -8 0 -5 3 -9 8 -8 9 3 174 -81 206 -105 6 -4 40 -26 76 -50 36 -23 67
-44 70 -47 3 -3 34 -30 70 -60 95 -80 230 -220 230 -240 0 -5 4 -10 8 -12 11
-4 92 -124 92 -137 0 -5 4 -11 8 -13 11 -4 86 -154 102 -203 7 -22 16 -44 20
-50 7 -9 21 -63 22 -82 0 -5 4 -16 9 -25 10 -18 34 -127 44 -198 3 -25 8 -52
10 -60 3 -8 7 -59 10 -113 3 -55 7 -103 10 -107 3 -5 1 -11 -4 -15 -7 -3 -7
-15 -1 -29 5 -13 7 -26 4 -28 -2 -3 -6 -50 -9 -106 -3 -56 -7 -115 -9 -130 -3
-15 -7 -44 -10 -65 -8 -50 -36 -178 -43 -197 -3 -8 -7 -19 -8 -25 -22 -96
-117 -298 -194 -410 -124 -180 -331 -374 -491 -461 -19 -10 -37 -22 -40 -25
-9 -12 -165 -85 -358 -170 -103 -44 -191 -84 -195 -88 -4 -4 2 -19 13 -33 11
-15 20 -31 20 -36 0 -6 4 -12 8 -14 5 -1 35 -41 67 -88 32 -47 80 -114 105
-150 25 -36 76 -108 111 -160 55 -80 180 -258 313 -449 17 -23 36 -50 41 -60
6 -9 13 -18 16 -21 3 -3 32 -43 64 -90 32 -47 92 -134 134 -193 42 -59 81
-116 86 -125 6 -9 13 -19 16 -22 3 -3 36 -50 74 -105 37 -55 74 -107 81 -116
17 -19 18 -43 2 -33 -6 4 -50 6 -97 5 -47 -1 -93 -2 -101 -2 -14 1 -104 1
-125 0 -5 0 -40 1 -78 2 -37 1 -70 0 -73 -4 -3 -3 -18 -1 -34 3 -16 4 -31 5
-35 2 -8 -9 -85 -3 -106 8 -9 6 -28 27 -40 47 -13 21 -25 40 -28 43 -4 3 -26
34 -50 70 -25 36 -48 67 -53 68 -4 2 -8 9 -8 15 0 5 -22 41 -50 79 -27 38 -50
72 -50 77 0 5 -4 11 -8 13 -4 2 -37 46 -72 98 -36 52 -68 97 -72 98 -5 2 -8
10 -8 18 0 8 -4 14 -10 14 -5 0 -10 7 -10 15 0 8 -4 15 -8 15 -4 0 -16 15 -27
33 -10 17 -23 37 -27 42 -9 10 -28 39 -167 240 -41 61 -79 112 -83 113 -4 2
-8 10 -8 17 0 7 -3 15 -7 17 -5 2 -23 26 -42 53 -19 28 -57 84 -85 125 -28 41
-57 81 -63 88 -7 7 -13 17 -13 21 0 4 -8 16 -17 27 -19 21 -32 40 -61 87 -9
16 -27 40 -39 54 l-21 26 -856 0 c-471 0 -859 -3 -863 -6 -9 -9 -10 -257 -1
-284 4 -12 4 -24 0 -27 -9 -5 -7 -289 2 -304 3 -6 3 -13 -1 -15 -9 -6 -9 -517
0 -541 3 -8 3 -17 -1 -20 -4 -2 -6 -99 -6 -216 l1 -212 -23 5 c-13 2 -24 0
-24 -4 0 -5 -6 -6 -13 -3 -24 9 -98 10 -103 2 -3 -5 -10 -6 -15 -2 -12 7 -148
9 -155 1 -3 -3 -18 -2 -33 3 -16 4 -34 5 -40 1 -7 -4 -32 -5 -56 -1 -24 4 -50
3 -56 -1 -7 -4 -19 -5 -27 -1 -19 7 -80 7 -87 0 -3 -3 -20 -2 -38 1 l-32 7 -3
2589 -2 2590 1162 -1 c640 -1 1215 -4 1278 -8z"/>
<path d="M1719 6795 c-5 -53 -3 -164 3 -181 4 -12 4 -25 1 -28 -6 -6 -8 -358
-3 -381 1 -5 1 -14 0 -20 -5 -26 -2 -294 4 -303 3 -6 3 -13 -1 -15 -9 -6 -9
-438 0 -461 3 -8 3 -17 -1 -20 -8 -5 -7 -598 1 -620 3 -8 3 -17 -1 -20 -9 -5
-7 -369 2 -384 3 -6 3 -13 -1 -15 -6 -4 -8 -103 -4 -197 1 -24 1647 -19 1741
5 8 2 40 7 70 10 30 4 57 8 60 10 3 2 25 6 50 10 24 4 52 11 62 16 9 5 21 8
25 8 4 -1 15 0 23 4 8 3 40 13 70 22 65 19 71 22 175 71 253 119 448 308 565
549 96 194 134 372 133 620 0 248 -39 427 -139 632 -19 39 -41 77 -49 83 -8 7
-15 17 -15 22 0 9 -58 88 -98 133 -21 23 -127 121 -162 150 -54 43 -210 139
-210 128 0 -3 -9 2 -20 12 -11 10 -20 15 -20 11 0 -4 -10 0 -22 8 -12 9 -30
16 -40 16 -10 0 -18 5 -18 10 0 6 -3 9 -7 8 -5 -1 -37 8 -73 19 -85 29 -217
61 -277 68 -27 3 -59 7 -74 10 -14 3 -56 8 -95 10 -38 2 -69 5 -69 6 0 1 -357
2 -792 3 -548 1 -793 -1 -794 -9z m1623 -638 c49 -5 100 -13 196 -33 13 -3 43
-11 65 -20 23 -8 46 -16 52 -17 32 -7 164 -83 206 -118 60 -50 141 -166 140
-199 0 -3 7 -15 15 -27 8 -13 12 -23 10 -23 -3 0 -1 -14 4 -32 17 -56 23 -111
23 -198 1 -173 -19 -270 -78 -375 -39 -70 -147 -184 -167 -177 -5 1 -8 -2 -8
-7 0 -18 -193 -100 -275 -117 -163 -33 -220 -36 -714 -38 -361 -1 -444 1 -449
12 -8 22 -8 321 0 315 5 -2 4 6 0 19 -9 23 -7 70 2 95 3 7 2 13 -2 13 -10 0
-7 364 3 380 5 7 4 11 -1 7 -5 -3 -9 90 -9 223 0 125 3 226 7 223 5 -2 4 6 0
19 -9 25 -8 60 1 75 6 9 873 9 979 0z"/>
<path d="M8282 3474 c-40 -7 -90 -19 -110 -25 -20 -7 -42 -14 -48 -15 -29 -5
-146 -62 -209 -102 -70 -44 -176 -143 -207 -193 l-16 -26 91 -57 c51 -31 126
-79 168 -107 l77 -49 36 36 c20 20 36 39 36 42 1 12 112 73 171 92 32 11 78
21 103 22 25 2 46 7 46 11 0 5 5 5 11 1 6 -3 34 -8 63 -9 124 -5 209 -52 254
-142 25 -49 25 -168 -1 -227 -9 -21 -17 -40 -17 -43 0 -2 -14 -25 -32 -51 -33
-49 -178 -196 -367 -372 -62 -57 -134 -125 -160 -150 -63 -61 -330 -312 -362
-342 -25 -23 -25 -26 -26 -176 0 -83 3 -150 6 -147 4 2 13 0 21 -5 7 -4 24 -4
36 0 14 6 26 5 29 0 3 -5 15 -6 29 0 12 4 28 5 34 1 7 -4 37 -4 67 -1 30 3 55
3 55 -1 0 -4 14 -4 30 1 17 5 30 6 30 2 0 -4 14 -7 30 -7 17 0 30 3 30 7 0 4
11 3 25 -2 15 -6 27 -6 30 0 3 5 15 6 27 1 12 -4 38 -5 59 -1 20 4 44 3 52 -2
9 -5 18 -4 22 2 4 7 12 7 24 0 10 -5 21 -7 25 -3 7 7 76 10 76 3 0 -3 17 -4
38 -2 50 4 54 4 77 -1 11 -2 27 -1 36 4 8 4 21 4 29 -1 7 -4 24 -4 37 1 12 5
23 5 23 1 0 -5 23 -6 50 -2 28 4 50 4 50 0 0 -6 87 -3 106 4 6 2 17 0 24 -4 8
-5 22 -4 31 1 11 6 20 5 24 -1 4 -6 13 -7 23 -1 11 6 24 6 34 0 10 -6 26 -5
42 1 14 5 26 6 26 2 0 -4 17 -6 37 -5 21 1 52 2 69 2 l30 1 0 186 c-1 163 -3
187 -18 195 -11 6 -19 6 -23 -1 -4 -6 -10 -8 -15 -5 -12 7 -458 8 -469 1 -4
-3 -11 -3 -14 0 -3 3 -76 5 -161 5 -148 -2 -180 4 -142 26 8 4 81 71 163 149
81 78 183 174 227 215 154 145 304 318 289 333 -3 3 -2 6 3 6 12 0 71 133 74
165 0 3 0 6 1 8 6 19 10 56 14 121 3 43 8 83 11 88 3 4 2 8 -3 8 -4 0 -9 17
-11 38 -8 130 -106 289 -230 373 -76 52 -210 105 -312 125 -65 12 -333 11
-408 -2z"/>
<path d="M6582 3271 c3 -170 5 -186 21 -185 9 1 17 -2 17 -7 0 -5 10 -5 23 -1
24 9 98 8 122 -2 8 -3 15 -2 15 2 0 6 56 7 180 3 l25 -1 -1 -815 0 -814 25 -9
c15 -5 41 -5 59 -2 17 4 32 4 32 -1 0 -4 14 -4 30 1 17 5 30 6 30 2 0 -4 14
-7 30 -7 17 0 30 3 30 7 0 4 11 3 25 -2 15 -6 27 -6 30 0 3 5 15 6 27 1 11 -4
40 -4 65 -1 24 4 46 3 49 -1 2 -5 11 -6 19 -2 13 4 15 136 15 1009 0 552 -3
1005 -7 1005 -5 1 -200 3 -436 4 l-427 1 2 -185z"/>
</g>
</svg>
