<svg width="50" height="50" viewBox="0 0 50 50" fill="none" xmlns="http://www.w3.org/2000/svg">
<path d="M39.1653 27.5002C40.0857 27.5002 40.8319 26.754 40.8319 25.8335V5.00016C40.8319 4.07969 40.0857 3.3335 39.1653 3.3335H10.8319C9.91146 3.3335 9.16527 4.07969 9.16527 5.00016V25.8335C9.16527 26.754 9.91146 27.5002 10.8319 27.5002H39.1653ZM10.8319 5.00016H39.1653V25.8335H10.8319V5.00016Z" fill="#D45F48"/>
<path d="M2.49876 50H47.4988C48.3399 49.9995 49.1244 49.5761 49.5864 48.8733C50.0484 48.1704 50.126 47.2823 49.7929 46.51L45.7796 38.4533C45.1514 36.8667 43.6152 35.827 41.9088 35.8333H40.8321V33.25C42.7708 32.8513 44.1629 31.1459 44.1654 29.1667V4.16667C44.1627 1.86662 42.2988 0.0027551 39.9988 0H9.99877C7.69872 0.0027551 5.83485 1.86662 5.8321 4.16667V29.1667C5.8346 31.1459 7.22675 32.8513 9.16543 33.25V35.8333H8.08877C6.40642 35.8211 4.88592 36.8338 4.24876 38.3908L0.178763 46.5717C-0.129188 47.3417 -0.0352487 48.2143 0.429537 48.9011C0.894323 49.5879 1.66945 49.9996 2.49876 50ZM7.49877 29.1667V4.16667C7.49877 2.78595 8.61805 1.66667 9.99877 1.66667H39.9988C41.3795 1.66667 42.4988 2.78595 42.4988 4.16667V29.1667C42.4988 30.5474 41.3795 31.6667 39.9988 31.6667H9.99877C8.61805 31.6667 7.49877 30.5474 7.49877 29.1667ZM10.8321 33.3333H12.4988C12.4988 33.7936 12.8719 34.1667 13.3321 34.1667C13.7923 34.1667 14.1654 33.7936 14.1654 33.3333H15.8321C15.8321 33.7936 16.2052 34.1667 16.6654 34.1667C17.1257 34.1667 17.4988 33.7936 17.4988 33.3333H19.1654C19.1654 33.7936 19.5385 34.1667 19.9988 34.1667C20.459 34.1667 20.8321 33.7936 20.8321 33.3333H22.4988C22.4988 33.7936 22.8719 34.1667 23.3321 34.1667C23.7923 34.1667 24.1654 33.7936 24.1654 33.3333H25.8321C25.8321 33.7936 26.2052 34.1667 26.6654 34.1667C27.1257 34.1667 27.4988 33.7936 27.4988 33.3333H29.1654C29.1654 33.7936 29.5385 34.1667 29.9988 34.1667C30.459 34.1667 30.8321 33.7936 30.8321 33.3333H32.4988C32.4988 33.7936 32.8719 34.1667 33.3321 34.1667C33.7923 34.1667 34.1654 33.7936 34.1654 33.3333H35.8321C35.8321 33.7936 36.2052 34.1667 36.6654 34.1667C37.1257 34.1667 37.4988 33.7936 37.4988 33.3333H39.1654V35.8333H10.8321V33.3333ZM1.69876 47.25L5.76793 39.0692C6.14526 38.1186 7.06608 37.496 8.08877 37.5H41.9088C42.9549 37.5037 43.8897 38.1539 44.2571 39.1333L48.2713 47.1908C48.3738 47.4473 48.3425 47.7379 48.1878 47.9668C48.033 48.1956 47.775 48.3329 47.4988 48.3333H2.49876C2.23371 48.3317 1.98493 48.2052 1.82747 47.992C1.67001 47.7788 1.62231 47.5038 1.69876 47.25Z" fill="#D45F48"/>
<path d="M7.2686 46.6668H29.9986C30.9191 46.6668 31.6653 45.9206 31.6653 45.0001V40.8334C31.6653 39.9129 30.9191 39.1667 29.9986 39.1667H9.16526C8.54194 39.1733 7.97268 39.522 7.6836 40.0743L5.82026 44.1734C5.5255 44.6895 5.5278 45.3234 5.8263 45.8372C6.1248 46.3511 6.67432 46.6672 7.2686 46.6668ZM9.16526 40.8334H29.9986V44.9659H7.30276L9.16526 40.8334Z" fill="#D45F48"/>
<path d="M34.9986 46.6668H42.7286C43.3089 46.6666 43.8474 46.3647 44.1501 45.8696C44.4529 45.3745 44.4763 44.7575 44.2119 44.2409L42.2786 40.0068C41.982 39.4875 41.4299 39.1669 40.8319 39.1667H34.9986C34.0781 39.1667 33.3319 39.9129 33.3319 40.8334V45.0001C33.3319 45.9206 34.0781 46.6668 34.9986 46.6668ZM34.9986 40.8334L40.7969 40.7651L42.7336 45.0001H34.9986V40.8334Z" fill="#D45F48"/>
<path d="M13.8319 6.83342C13.5937 6.65479 13.2783 6.61679 13.0046 6.73374C12.7308 6.85069 12.5402 7.10482 12.5046 7.40041C12.4689 7.69599 12.5937 7.98812 12.8319 8.16675L15.2761 10.0001L12.8319 11.8334C12.545 12.0486 12.4279 12.4233 12.5413 12.7636C12.6548 13.1039 12.9732 13.3334 13.3319 13.3334C13.7061 13.3334 13.4986 13.4168 17.1652 10.6668C17.3751 10.5094 17.4986 10.2624 17.4986 10.0001C17.4986 9.73779 17.3751 9.4908 17.1652 9.33342L13.8319 6.83342Z" fill="#D45F48"/>
<path d="M21.6653 11.6665H19.1653C18.705 11.6665 18.3319 12.0396 18.3319 12.4998C18.3319 12.9601 18.705 13.3332 19.1653 13.3332H21.6653C22.1255 13.3332 22.4986 12.9601 22.4986 12.4998C22.4986 12.0396 22.1255 11.6665 21.6653 11.6665Z" fill="#D45F48"/>
</svg>
