<svg width="50" height="50" viewBox="0 0 50 50" fill="none" xmlns="http://www.w3.org/2000/svg">
<path d="M48.6983 21.545L45.015 20.7234C44.7222 20.6645 44.4869 20.4467 44.4058 20.1592C43.926 18.2337 43.1621 16.3904 42.1392 14.69C41.9962 14.4364 42.0078 14.124 42.1692 13.8817L44.2 10.6942C44.6239 10.0356 44.529 9.17023 43.9725 8.61918L41.3808 6.02752C40.8298 5.47097 39.9644 5.37609 39.3058 5.80002L36.1183 7.83335C35.876 7.9947 35.5636 8.0063 35.31 7.86335C33.6096 6.84044 31.7663 6.0765 29.8408 5.59668C29.5531 5.51545 29.3352 5.27984 29.2767 4.98668L28.455 1.30168C28.2891 0.539616 27.6132 -0.00289117 26.8333 1.63888e-05H23.1667C22.386 -0.00343647 21.7092 0.539051 21.5425 1.30168L20.7208 4.98502C20.662 5.27785 20.4441 5.51309 20.1567 5.59418C18.2312 6.074 16.3879 6.83794 14.6875 7.86085C14.434 8.00419 14.1214 7.99259 13.8792 7.83085L10.6867 5.79752C10.0314 5.37456 9.16929 5.4688 8.62083 6.02335L6.02083 8.62335C5.46646 9.17223 5.37225 10.0344 5.795 10.69L7.82833 13.8817C7.98969 14.124 8.00128 14.4364 7.85833 14.69C6.83542 16.3904 6.07149 18.2337 5.59167 20.1592C5.51044 20.4469 5.27482 20.6648 4.98167 20.7234L1.29667 21.545C0.536588 21.7129 -0.00341684 22.3883 8.72406e-07 23.1667V26.8334C-0.00316107 27.6125 0.538094 28.2881 1.29917 28.455L4.985 29.2767C5.27784 29.3355 5.51307 29.5534 5.59417 29.8408C6.07399 31.7663 6.83792 33.6096 7.86083 35.31C8.00378 35.5636 7.99219 35.876 7.83083 36.1184L5.8 39.3059C5.37607 39.9644 5.47095 40.8298 6.0275 41.3809L8.61917 43.9725C9.17051 44.5285 10.0355 44.6233 10.6942 44.2L13.8817 42.1667C14.124 42.0053 14.4364 41.9937 14.69 42.1367C16.3904 43.1596 18.2337 43.9235 20.1592 44.4034C20.4469 44.4846 20.6648 44.7202 20.7233 45.0134L21.545 48.6959C21.7104 49.4586 22.3862 50.002 23.1667 50H26.8333C27.614 50.0035 28.2908 49.461 28.4575 48.6984L29.2792 45C29.5108 43.9608 31.0025 44.6717 35.1383 42.2183L39.7658 46.8425C41.0164 48.1641 42.8862 48.702 44.6479 48.2469C46.4096 47.7919 47.785 46.4158 48.2392 44.6539C48.6934 42.892 48.1546 41.0225 46.8325 39.7725L42.2108 35.1525C44.6933 30.9592 43.9608 29.51 45.0017 29.2775L48.7008 28.4534C49.4613 28.2866 50.0024 27.6119 50 26.8334V23.1667C50.0023 22.387 49.46 21.7115 48.6983 21.545ZM46.6317 43.3092C46.6307 44.6562 45.8191 45.8703 44.5747 46.3861C43.3303 46.9019 41.8978 46.618 40.9442 45.6667C27.6942 32.425 28.3217 32.9167 27.8525 32.9C27.7933 32.9 27.7343 32.9067 27.6767 32.92C27.6375 32.9216 27.5985 32.926 27.56 32.9333C24.8261 33.8214 21.8275 33.2359 19.6285 31.3847C17.4294 29.5335 16.3412 26.6786 16.75 23.8334L21.3467 28.4225C21.5476 28.6231 21.8369 28.7076 22.1142 28.6467L26.9392 27.5884C27.2563 27.5187 27.5041 27.2712 27.5742 26.9542L28.6417 22.1208C28.7027 21.8431 28.6178 21.5535 28.4167 21.3525L23.825 16.7609C26.6715 16.3566 29.5254 17.4481 31.3755 19.6489C33.2257 21.8496 33.8107 24.8486 32.9233 27.5833C32.6967 28.2867 32.585 27.8917 45.655 40.9509C46.2828 41.5747 46.6346 42.4241 46.6317 43.3092ZM37.2683 30.2142L34.6517 27.5984C35.5975 24.0603 34.5336 20.2882 31.8784 17.7658C29.2233 15.2433 25.4016 14.3741 21.9167 15.5C21.6407 15.5893 21.431 15.8155 21.363 16.0975C21.295 16.3794 21.3784 16.6764 21.5833 16.8817L26.9167 22.2083L26.0633 26.075L22.2 26.9217L16.8667 21.5942C16.6614 21.3893 16.3644 21.3058 16.0825 21.3738C15.8005 21.4419 15.5742 21.6516 15.485 21.9275C14.3542 25.4104 15.22 29.2328 17.7412 31.8884C20.2625 34.544 24.0348 35.607 27.5717 34.6584L30.1917 37.2767C24.3136 39.7625 17.4984 37.7344 13.9358 32.4393C10.3732 27.1441 11.0625 20.067 15.5798 15.5588C20.097 11.0505 27.1755 10.3755 32.4635 13.9487C37.7515 17.5219 39.7659 24.3412 37.2683 30.2142ZM44.6392 27.6525C43.7169 27.8638 42.9942 28.5798 42.7742 29.5C42.3817 31.0538 41.7851 32.5487 41 33.9459L38.5267 31.4734C41.6841 24.8856 39.6365 16.9813 33.6778 12.7551C27.7191 8.52892 19.5823 9.21 14.4091 14.368C9.23588 19.526 8.53084 27.6607 12.7395 33.6319C16.9481 39.603 24.8464 41.6738 31.4433 38.5359C33.0017 40.09 32.4317 39.5217 33.9233 41.0117C32.5332 41.7919 31.0458 42.3846 29.5 42.7742C28.5802 42.9942 27.8646 43.7165 27.6533 44.6384L26.8333 48.3334H23.1717L22.35 44.6517C22.1516 43.7441 21.4611 43.0243 20.5625 42.7884C18.7976 42.3488 17.1081 41.6483 15.55 40.71C14.7534 40.2438 13.7626 40.2641 12.9858 40.7625L9.7975 42.7934L7.20583 40.2009L9.23667 37.0134C9.73549 36.2367 9.75578 35.2456 9.28917 34.4492C8.35087 32.8911 7.65037 31.2016 7.21083 29.4367C6.97461 28.5384 6.2549 27.8483 5.3475 27.65L1.66667 26.8334V23.1725L5.35 22.35C6.25761 22.1516 6.97738 21.4611 7.21333 20.5625C7.65287 18.7976 8.35337 17.1081 9.29167 15.55C9.75828 14.7536 9.73799 13.7625 9.23917 12.9859L7.20167 9.80168L9.79333 7.20252L12.9858 9.23668C13.7624 9.73588 14.7537 9.75618 15.55 9.28918C17.1081 8.35088 18.7976 7.65039 20.5625 7.21085C21.4611 6.9749 22.1516 6.25513 22.35 5.34752L23.1667 1.66668H26.825L27.6475 5.35002C27.8459 6.25763 28.5364 6.9774 29.435 7.21335C31.1999 7.65289 32.8894 8.35338 34.4475 9.29168C35.2439 9.75868 36.2351 9.73839 37.0117 9.23918L40.2 7.20835L42.7917 9.80085L40.7608 12.9884C40.262 13.765 40.2417 14.7561 40.7083 15.5525C41.6466 17.1106 42.3471 18.8001 42.7867 20.565C43.0226 21.4636 43.7424 22.1541 44.65 22.3525L48.3333 23.1667V26.825L44.6392 27.6525Z" fill="#D45F48"/>
<path d="M25.8333 5.83325H24.1667C23.7064 5.83325 23.3333 6.20635 23.3333 6.66659C23.3333 7.12682 23.7064 7.49992 24.1667 7.49992H25.8333C26.2936 7.49992 26.6667 7.12682 26.6667 6.66659C26.6667 6.20635 26.2936 5.83325 25.8333 5.83325Z" fill="#D45F48"/>
<path d="M24.1667 44.1667H25.8333C26.2936 44.1667 26.6667 43.7936 26.6667 43.3333C26.6667 42.8731 26.2936 42.5 25.8333 42.5H24.1667C23.7064 42.5 23.3333 42.8731 23.3333 43.3333C23.3333 43.7936 23.7064 44.1667 24.1667 44.1667Z" fill="#D45F48"/>
<path d="M12.0367 10.8575L10.8575 12.0366C10.5417 12.3636 10.5462 12.8834 10.8677 13.2048C11.1891 13.5263 11.7089 13.5308 12.0358 13.215L13.215 12.0358C13.5308 11.7088 13.5263 11.1891 13.2049 10.8676C12.8834 10.5462 12.3637 10.5417 12.0367 10.8575Z" fill="#D45F48"/>
<path d="M6.66666 23.3335C6.20642 23.3335 5.83333 23.7066 5.83333 24.1668V25.8335C5.83333 26.2937 6.20642 26.6668 6.66666 26.6668C7.1269 26.6668 7.5 26.2937 7.5 25.8335V24.1668C7.5 23.7066 7.1269 23.3335 6.66666 23.3335Z" fill="#D45F48"/>
<path d="M43.3333 23.3335C42.8731 23.3335 42.5 23.7066 42.5 24.1668V25.8335C42.5 26.2937 42.8731 26.6668 43.3333 26.6668C43.7936 26.6668 44.1667 26.2937 44.1667 25.8335V24.1668C44.1667 23.7066 43.7936 23.3335 43.3333 23.3335Z" fill="#D45F48"/>
<path d="M12.0367 39.1425C12.3637 39.4583 12.8834 39.4537 13.2049 39.1323C13.5263 38.8109 13.5308 38.2911 13.215 37.9641L12.0358 36.785C11.7089 36.4691 11.1891 36.4737 10.8677 36.7951C10.5462 37.1165 10.5417 37.6363 10.8575 37.9633L12.0367 39.1425Z" fill="#D45F48"/>
<path d="M37.9633 10.8575C37.6363 10.5417 37.1166 10.5462 36.7951 10.8676C36.4737 11.1891 36.4692 11.7088 36.785 12.0358C38.0667 13.3175 38.1142 13.4591 38.5533 13.4591C38.8903 13.4591 39.1941 13.256 39.3231 12.9447C39.452 12.6333 39.3808 12.275 39.1425 12.0366L37.9633 10.8575Z" fill="#D45F48"/>
<path d="M43.3333 45.8332C44.714 45.8332 45.8333 44.714 45.8333 43.3333C45.8333 41.9525 44.714 40.8333 43.3333 40.8333C41.9526 40.8333 40.8333 41.9525 40.8333 43.3333C40.8333 44.714 41.9526 45.8332 43.3333 45.8332ZM43.3333 42.4999C43.7936 42.4999 44.1667 42.873 44.1667 43.3333C44.1667 43.7935 43.7936 44.1666 43.3333 44.1666C42.8731 44.1666 42.5 43.7935 42.5 43.3333C42.5 42.873 42.8731 42.4999 43.3333 42.4999Z" fill="#D45F48"/>
<path d="M31.4225 30.2442C31.0955 29.9284 30.5758 29.9329 30.2543 30.2543C29.9329 30.5758 29.9284 31.0955 30.2442 31.4225L39.4108 40.5892C39.6201 40.8058 39.9299 40.8927 40.2213 40.8164C40.5126 40.7402 40.7402 40.5126 40.8164 40.2213C40.8927 39.9299 40.8058 39.6201 40.5892 39.4108L31.4225 30.2442Z" fill="#D45F48"/>
</svg>
