<svg width="50" height="50" viewBox="0 0 50 50" fill="none" xmlns="http://www.w3.org/2000/svg">
<path d="M45.8333 0H7.5C5.19996 0.00290011 3.33609 1.96487 3.33333 4.38596V38.5965C3.33171 39.8271 3.8256 41.0007 4.6925 41.8263C3.4625 42.5868 3.58667 42.514 3.4525 42.5877C1.3669 43.6808 0.0350072 45.9075 0 48.3596V49.1228C0 49.6073 0.373096 50 0.833333 50H33.3333C33.7936 50 34.1667 49.6073 34.1667 49.1228V48.3596C34.155 46.176 33.087 44.1491 31.3333 42.9825H45.8333C48.1334 42.9796 49.9972 41.0176 50 38.5965V4.38596C49.9972 1.96487 48.1334 0.00290011 45.8333 0ZM32.5 48.2456H1.66667C1.73911 46.4871 2.72122 44.9118 4.225 44.1421L10.0517 40.5456C9.9221 42.8404 10.9365 45.0407 12.7292 46.3535C12.948 46.5011 13.2196 46.5327 13.4638 46.4391C13.708 46.3456 13.8967 46.1374 13.9742 45.8763C14.505 44.0877 16.4742 43.2447 17.0992 43.021C17.7258 43.25 19.6983 44.0982 20.2267 45.8763C20.3041 46.1374 20.4928 46.3456 20.737 46.4391C20.9812 46.5327 21.2529 46.5011 21.4717 46.3535C23.2572 45.0469 24.2715 42.8593 24.1517 40.5737C28.6383 43.3474 29.845 44.0974 30.005 44.186C31.4842 44.9513 32.4431 46.5116 32.5 48.2456ZM9.16667 14.8132C9.25 13.7939 10.0283 8.71053 17.0833 8.71053C24.0975 8.71053 24.9167 13.757 25 14.6842V17.9737C22.8167 16.5439 21.6367 12.9219 21.6233 12.8798C21.5165 12.5434 21.2277 12.3078 20.8916 12.2828C20.5555 12.2579 20.2381 12.4485 20.0875 12.7658C17.5875 18.0289 11.3375 18.4675 9.165 18.4518L9.16667 14.8132ZM8.33333 21.3772C8.53109 20.9657 8.76577 20.575 9.03417 20.2105C13.4058 20.3044 18.1058 18.8482 20.7008 15.0763C21.4575 16.6965 22.8867 19.0333 25.025 19.9228C25.0446 20.0378 25.0863 20.1473 25.1475 20.2447C25.7092 21.1 25.6933 21.0018 25.8325 21.3781V24.3605C25.8325 24.7447 25.5883 24.8728 25.0717 25.3061C24.8158 25.5202 24.8 25.7096 24.6217 26.3781C24.0301 28.2862 23.0099 30.0159 21.6475 31.4202C21.1317 31.9553 20.8325 32.1649 20.8325 32.6325C20.8325 35.9974 20.6658 36.7553 21.4583 38.1588C19.265 42.2614 14.9267 42.2596 12.74 38.1588L12.725 38.1377C13.51 36.743 13.3325 35.8421 13.3325 32.6377C13.3325 32.1991 13.1275 32.0579 12.5167 31.4246C11.1548 30.0197 10.1348 28.2898 9.54333 26.3816C9.3625 25.7053 9.34833 25.5246 9.09333 25.3114C8.49333 24.8088 8.3325 24.7333 8.3325 24.3658L8.33333 21.3772ZM22.3975 39.8728C22.718 41.4125 22.3102 43.0202 21.3033 44.1868C20.866 43.4797 20.2963 42.8738 19.6292 42.4061C20.7445 41.8278 21.6983 40.955 22.3975 39.8728ZM11.8025 39.8728C12.5018 40.9553 13.4556 41.8287 14.5708 42.4079C13.902 42.8778 13.331 43.4861 12.8925 44.1956C11.8767 43.0299 11.4693 41.4135 11.8025 39.8711V39.8728ZM48.3333 38.5965C48.3333 40.0499 47.214 41.2281 45.8333 41.2281H28.5C23.6142 38.2079 23.9825 38.4614 23.6258 38.1526C23.5059 37.9287 23.3255 37.7473 23.1075 37.6316C22.3492 36.4272 22.5 36.3491 22.5 32.9991C24.3259 31.2518 25.6496 29.0005 26.3208 26.5009L26.5858 26.2789C27.1619 25.8275 27.501 25.1156 27.5 24.3596V21.2281C27.4109 20.6808 27.1851 20.1682 26.8458 19.743L26.6667 19.4737V14.6009C26.5958 13.8184 25.7192 6.95614 17.0833 6.95614C8.3925 6.95614 7.56833 13.8719 7.5 14.7368V19.4737L7.32083 19.7456C6.98319 20.1709 6.75761 20.6821 6.66667 21.2281V24.3596C6.66398 25.1081 6.99655 25.8141 7.56417 26.2649L7.84583 26.5009C8.5142 29.0018 9.83839 31.2539 11.6667 32.9991C11.6667 36.843 11.7917 36.2781 11.055 37.6535C10.864 37.7625 10.7036 37.9225 10.59 38.1175C10.28 38.3904 10.5325 38.2132 6.24167 40.8675C5.47581 40.3945 5.00384 39.5312 5 38.5965V4.38596C5 2.93258 6.11929 1.75439 7.5 1.75439H45.8333C47.214 1.75439 48.3333 2.93258 48.3333 4.38596V38.5965Z" fill="#D45F48"/>
<path d="M46.6667 36.8421H45.8334V8.77196C45.8334 7.80304 45.0872 7.01758 44.1667 7.01758H42.5C41.5796 7.01758 40.8334 7.80304 40.8334 8.77196V36.8421H39.1667V16.6667C39.1667 15.6978 38.4205 14.9123 37.5 14.9123H35.8334C34.9129 14.9123 34.1667 15.6978 34.1667 16.6667V36.8421H32.5V29.8246C32.5 28.8557 31.7538 28.0702 30.8334 28.0702H29.1667C28.2462 28.0702 27.5 28.8557 27.5 29.8246V36.8421H26.6667C26.2065 36.8421 25.8334 37.2349 25.8334 37.7193C25.8334 38.2038 26.2065 38.5965 26.6667 38.5965H46.6667C47.1269 38.5965 47.5 38.2038 47.5 37.7193C47.5 37.2349 47.1269 36.8421 46.6667 36.8421ZM29.1667 36.8421V29.8246H30.8334V36.8421H29.1667ZM35.8334 36.8421V16.6667H37.5V36.8421H35.8334ZM42.5 36.8421V8.77196H44.1667V36.8421H42.5Z" fill="#D45F48"/>
</svg>
