<svg width="50" height="50" viewBox="0 0 50 50" fill="none" xmlns="http://www.w3.org/2000/svg">
<path d="M5 14.1665H30C30.9205 14.1665 31.6667 13.4203 31.6667 12.4998V5.83317C31.6667 4.9127 30.9205 4.1665 30 4.1665H5C4.07952 4.1665 3.33333 4.9127 3.33333 5.83317V12.4998C3.33333 13.4203 4.07952 14.1665 5 14.1665ZM5 5.83317H30V12.4998H5V5.83317Z" fill="#D45F48"/>
<path d="M7.5 15.8333H5C4.07952 15.8333 3.33333 16.5794 3.33333 17.4999V19.9999C3.33333 20.9204 4.07952 21.6666 5 21.6666H7.5C8.42047 21.6666 9.16666 20.9204 9.16666 19.9999V17.4999C9.16666 16.5794 8.42047 15.8333 7.5 15.8333ZM5 19.9999V17.4999H7.5V19.9999H5Z" fill="#D45F48"/>
<path d="M15 15.8333H12.5C11.5795 15.8333 10.8333 16.5794 10.8333 17.4999V19.9999C10.8333 20.9204 11.5795 21.6666 12.5 21.6666H15C15.9205 21.6666 16.6667 20.9204 16.6667 19.9999V17.4999C16.6667 16.5794 15.9205 15.8333 15 15.8333ZM12.5 19.9999V17.4999H15V19.9999H12.5Z" fill="#D45F48"/>
<path d="M22.5 15.8333H20C19.0795 15.8333 18.3333 16.5794 18.3333 17.4999V19.9999C18.3333 20.9204 19.0795 21.6666 20 21.6666H22.5C23.4205 21.6666 24.1667 20.9204 24.1667 19.9999V17.4999C24.1667 16.5794 23.4205 15.8333 22.5 15.8333ZM20 19.9999V17.4999H22.5V19.9999H20Z" fill="#D45F48"/>
<path d="M30 15.8333H27.5C26.5795 15.8333 25.8333 16.5794 25.8333 17.4999V19.9999C25.8333 20.9204 26.5795 21.6666 27.5 21.6666H30C30.9205 21.6666 31.6667 20.9204 31.6667 19.9999V17.4999C31.6667 16.5794 30.9205 15.8333 30 15.8333ZM27.5 19.9999V17.4999H30V19.9999H27.5Z" fill="#D45F48"/>
<path d="M7.5 24.1667H5C4.07952 24.1667 3.33333 24.9129 3.33333 25.8334V28.3334C3.33333 29.2539 4.07952 30.0001 5 30.0001H7.5C8.42047 30.0001 9.16666 29.2539 9.16666 28.3334V25.8334C9.16666 24.9129 8.42047 24.1667 7.5 24.1667ZM5 28.3334V25.8334H7.5V28.3334H5Z" fill="#D45F48"/>
<path d="M15 24.1667H12.5C11.5795 24.1667 10.8333 24.9129 10.8333 25.8334V28.3334C10.8333 29.2539 11.5795 30.0001 12.5 30.0001H15C15.9205 30.0001 16.6667 29.2539 16.6667 28.3334V25.8334C16.6667 24.9129 15.9205 24.1667 15 24.1667ZM12.5 28.3334V25.8334H15V28.3334H12.5Z" fill="#D45F48"/>
<path d="M7.5 32.5H5C4.07952 32.5 3.33333 33.2462 3.33333 34.1667V36.6667C3.33333 37.5871 4.07952 38.3333 5 38.3333H7.5C8.42047 38.3333 9.16666 37.5871 9.16666 36.6667V34.1667C9.16666 33.2462 8.42047 32.5 7.5 32.5ZM5 36.6667V34.1667H7.5V36.6667H5Z" fill="#D45F48"/>
<path d="M15 32.5H12.5C11.5795 32.5 10.8333 33.2462 10.8333 34.1667V36.6667C10.8333 37.5871 11.5795 38.3333 12.5 38.3333H15C15.9205 38.3333 16.6667 37.5871 16.6667 36.6667V34.1667C16.6667 33.2462 15.9205 32.5 15 32.5ZM12.5 36.6667V34.1667H15V36.6667H12.5Z" fill="#D45F48"/>
<path d="M7.5 40.8333H5C4.07952 40.8333 3.33333 41.5794 3.33333 42.4999V44.9999C3.33333 45.9204 4.07952 46.6666 5 46.6666H7.5C8.42047 46.6666 9.16666 45.9204 9.16666 44.9999V42.4999C9.16666 41.5794 8.42047 40.8333 7.5 40.8333ZM5 44.9999V42.4999H7.5V44.9999H5Z" fill="#D45F48"/>
<path d="M15 40.8333H12.5C11.5795 40.8333 10.8333 41.5794 10.8333 42.4999V44.9999C10.8333 45.9204 11.5795 46.6666 12.5 46.6666H15C15.9205 46.6666 16.6667 45.9204 16.6667 44.9999V42.4999C16.6667 41.5794 15.9205 40.8333 15 40.8333ZM12.5 44.9999V42.4999H15V44.9999H12.5Z" fill="#D45F48"/>
<path d="M20.8333 6.66675C20.3731 6.66675 20 7.03984 20 7.50008V8.33341C20 8.79365 20.3731 9.16674 20.8333 9.16674C21.2936 9.16674 21.6667 8.79365 21.6667 8.33341V7.50008C21.6667 7.03984 21.2936 6.66675 20.8333 6.66675Z" fill="#D45F48"/>
<path d="M20 10.0001V10.8334C20 11.2936 20.3731 11.6667 20.8333 11.6667C21.2936 11.6667 21.6667 11.2936 21.6667 10.8334V10.0001C21.6667 9.53984 21.2936 9.16675 20.8333 9.16675C20.3731 9.16675 20 9.53984 20 10.0001Z" fill="#D45F48"/>
<path d="M24.1666 6.66675C23.7064 6.66675 23.3333 7.03984 23.3333 7.50008V8.33341C23.3333 8.79365 23.7064 9.16674 24.1666 9.16674C24.6269 9.16674 25 8.79365 25 8.33341V7.50008C25 7.03984 24.6269 6.66675 24.1666 6.66675Z" fill="#D45F48"/>
<path d="M23.3333 10.0001V10.8334C23.3333 11.2936 23.7064 11.6667 24.1666 11.6667C24.6269 11.6667 25 11.2936 25 10.8334V10.0001C25 9.53984 24.6269 9.16675 24.1666 9.16675C23.7064 9.16675 23.3333 9.53984 23.3333 10.0001Z" fill="#D45F48"/>
<path d="M27.5 6.66675C27.0398 6.66675 26.6667 7.03984 26.6667 7.50008V8.33341C26.6667 8.79365 27.0398 9.16674 27.5 9.16674C27.9602 9.16674 28.3333 8.79365 28.3333 8.33341V7.50008C28.3333 7.03984 27.9602 6.66675 27.5 6.66675Z" fill="#D45F48"/>
<path d="M26.6667 10.0001V10.8334C26.6667 11.2936 27.0398 11.6667 27.5 11.6667C27.9602 11.6667 28.3333 11.2936 28.3333 10.8334V10.0001C28.3333 9.53984 27.9602 9.16675 27.5 9.16675C27.0398 9.16675 26.6667 9.53984 26.6667 10.0001Z" fill="#D45F48"/>
<path d="M45.0508 25.0758C42.2674 22.6865 38.661 21.4785 35 21.7092V4.16667C34.9972 1.86662 33.1334 0.0027551 30.8333 0H4.16667C1.86662 0.0027551 0.0027551 1.86662 0 4.16667V45.8333C0.0027551 48.1334 1.86662 49.9972 4.16667 50H30.8333C31.4359 49.9976 32.0307 49.8634 32.5758 49.6067C34.1536 49.992 35.7871 50.0952 37.4008 49.9117C43.0067 49.2858 47.7072 45.3939 49.3678 40.0032C51.0284 34.6124 49.3328 28.7502 45.0508 25.0783V25.0758ZM27.2233 26.7942L34.7425 35.8258L27.0925 44.75C24.6672 42.3841 23.3104 39.1323 23.3351 35.7442C23.3598 32.3562 24.7638 29.1244 27.2233 26.7942ZM21.7092 36.6667H20V34.1667H21.7733C21.6599 34.9951 21.6383 35.8335 21.7092 36.6667ZM48.2925 35H37.645L44.5742 26.9167C46.7661 29.0616 48.0895 31.9398 48.2908 35H48.2925ZM43.3033 25.8333L35.8425 34.5417L28.5092 25.7283C32.924 22.4965 38.9349 22.5392 43.3033 25.8333ZM4.16667 48.3333C2.78595 48.3333 1.66667 47.214 1.66667 45.8333V4.16667C1.66667 2.78595 2.78595 1.66667 4.16667 1.66667H30.8333C32.214 1.66667 33.3333 2.78595 33.3333 4.16667V21.9008C30.9195 22.3342 28.6579 23.382 26.7667 24.9433C26.7478 24.9639 26.7303 24.9856 26.7142 25.0083C25.7441 25.8266 24.8874 26.7704 24.1667 27.815V25.8333C24.1667 24.9129 23.4205 24.1667 22.5 24.1667H20C19.0795 24.1667 18.3333 24.9129 18.3333 25.8333V28.3333C18.3333 29.2538 19.0795 30 20 30C22.7775 30 22.6358 30.0242 22.9758 29.9225C22.5953 30.7506 22.2964 31.6139 22.0833 32.5H20C19.0795 32.5 18.3333 33.2462 18.3333 34.1667V36.6667C18.3333 37.5871 19.0795 38.3333 20 38.3333H21.9008C22.0551 39.1898 22.2886 40.0301 22.5983 40.8433C22.4008 40.8333 22.9567 40.8333 20 40.8333C19.0795 40.8333 18.3333 41.5795 18.3333 42.5V45C18.3333 45.9205 19.0795 46.6667 20 46.6667H22.5C23.4205 46.6667 24.1667 45.9205 24.1667 45V43.8517C24.8482 44.8374 25.6512 45.7333 26.5567 46.5183C26.5745 46.5451 26.5942 46.5704 26.6158 46.5942C26.6367 46.6117 26.6617 46.6183 26.6842 46.6342C27.4545 47.2891 28.2926 47.8598 29.1842 48.3367L4.16667 48.3333ZM22.5 28.3333H20V25.8333H22.5V28.3333ZM22.5 45H20V42.5H22.5V45ZM28.3625 45.8333L35.2167 37.8333L36.3833 48.3067C33.5026 48.4486 30.6637 47.5731 28.3633 45.8333H28.3625ZM38.0392 48.1267L36.765 36.6667H48.2908C47.9031 42.3839 43.6789 47.106 38.04 48.1258L38.0392 48.1267Z" fill="#D45F48"/>
</svg>
