<svg width="50" height="50" viewBox="0 0 50 50" fill="none" xmlns="http://www.w3.org/2000/svg">
<path d="M49.1284 12.2384C49.0202 11.9235 49.8235 12.8166 37.467 0.257393C37.1334 -0.0858487 38.3891 0.0132916 19.6743 0.0132916C18.3163 0.0132916 17.2153 1.13228 17.2153 2.51263V32.5047H16.1096C15.806 32.5032 15.5285 32.3301 15.3899 32.0556C14.0184 29.2918 11.2443 27.5367 8.19892 27.506C3.56238 27.6292 -0.102794 31.5407 0.00220058 36.2537C-0.102794 40.9666 3.56238 44.8782 8.19892 45.0013C11.2443 44.9707 14.0184 43.2155 15.3899 40.4517C15.5285 40.1772 15.806 40.0041 16.1096 40.0027H17.2153V47.5007C17.2153 48.881 18.3163 50 19.6743 50H46.7235C48.0816 50 49.1825 48.881 49.1825 47.5007C49.1825 10.1581 49.2088 12.4716 49.1284 12.2384ZM37.7071 2.85754L46.3842 11.6769H38.5268C38.0741 11.6769 37.7071 11.3039 37.7071 10.8437V2.85754ZM13.9366 39.6811C12.8461 41.8931 10.633 43.3025 8.19892 43.3351C4.46766 43.2123 1.53623 40.0466 1.64154 36.2537C1.53623 32.4607 4.46766 29.295 8.19892 29.1722C10.6328 29.2047 12.8458 30.6137 13.9366 32.8254C14.3542 33.6563 15.1917 34.1822 16.1096 34.19H30.3301V38.3364H29.0325L28.2129 37.5033C27.5708 36.8527 26.5319 36.8527 25.8899 37.5033L25.4096 37.9865L24.9342 37.5033C24.2921 36.8527 23.2533 36.8527 22.6112 37.5033L21.7973 38.3364H16.1096C15.1949 38.3366 14.3567 38.8553 13.9366 39.6811ZM46.7235 48.3338H19.6743C19.2216 48.3338 18.8547 47.9608 18.8547 47.5007V40.0027C22.8374 40.0027 22.1956 40.2801 23.7727 38.6838L24.2481 39.167C24.8901 39.8176 25.929 39.8176 26.5711 39.167L27.0514 38.6838C28.4678 40.121 28.1391 40.0027 30.3301 40.0027V41.6689C30.3301 42.129 30.6971 42.502 31.1497 42.502C31.6024 42.502 31.9694 42.129 31.9694 41.6689V30.8384C31.9694 30.3783 31.6024 30.0053 31.1497 30.0053C30.6971 30.0053 30.3301 30.3783 30.3301 30.8384V32.5047H18.8547V2.51263C18.8547 2.05251 19.2216 1.67952 19.6743 1.67952H36.0678V10.8437C36.0678 12.2241 37.1687 13.3431 38.5268 13.3431H47.5432V47.5007C47.5432 47.9608 47.1762 48.3338 46.7235 48.3338Z" fill="#D45F48"/>
<path d="M23.773 20.0077H30.3304C31.6885 20.0077 32.7894 18.8887 32.7894 17.5084V11.6766C32.7894 10.7563 32.0555 10.0104 31.1501 10.0104V7.51102C31.1501 5.21044 29.3152 3.34546 27.0517 3.34546C24.7883 3.34546 22.9534 5.21044 22.9534 7.51102V10.0104C22.048 10.0104 21.314 10.7563 21.314 11.6766V17.5084C21.314 18.8887 22.415 20.0077 23.773 20.0077ZM24.5927 7.51102C24.5927 6.13067 25.6937 5.01168 27.0517 5.01168C28.4098 5.01168 29.5108 6.13067 29.5108 7.51102V10.0104H24.5927V7.51102ZM22.9534 11.6766H31.1501V17.5084C31.1501 17.9685 30.7831 18.3415 30.3304 18.3415H23.773C23.3204 18.3415 22.9534 17.9685 22.9534 17.5084V11.6766Z" fill="#D45F48"/>
<path d="M26.2321 15.8425H27.8714C28.3241 15.8425 28.6911 15.4695 28.6911 15.0094C28.6911 14.5493 28.3241 14.1763 27.8714 14.1763H26.2321C25.7794 14.1763 25.4124 14.5493 25.4124 15.0094C25.4124 15.4695 25.7794 15.8425 26.2321 15.8425Z" fill="#D45F48"/>
<path d="M22.1337 25.0068H22.9534C23.4061 25.0068 23.773 24.6338 23.773 24.1737C23.773 23.7136 23.4061 23.3406 22.9534 23.3406H22.1337C21.681 23.3406 21.314 23.7136 21.314 24.1737C21.314 24.6338 21.681 25.0068 22.1337 25.0068Z" fill="#D45F48"/>
<path d="M34.4288 24.1737C34.4288 23.7136 34.0618 23.3406 33.6091 23.3406H26.2321C25.7794 23.3406 25.4124 23.7136 25.4124 24.1737C25.4124 24.6338 25.7794 25.0068 26.2321 25.0068H33.6091C34.0618 25.0068 34.4288 24.6338 34.4288 24.1737Z" fill="#D45F48"/>
<path d="M44.2648 23.3406H36.8878C36.4351 23.3406 36.0681 23.7136 36.0681 24.1737C36.0681 24.6338 36.4351 25.0068 36.8878 25.0068H44.2648C44.7175 25.0068 45.0845 24.6338 45.0845 24.1737C45.0845 23.7136 44.7175 23.3406 44.2648 23.3406Z" fill="#D45F48"/>
<path d="M44.2648 30.8386H36.8878C36.4351 30.8386 36.0681 31.2116 36.0681 31.6717C36.0681 32.1318 36.4351 32.5048 36.8878 32.5048H44.2648C44.7175 32.5048 45.0845 32.1318 45.0845 31.6717C45.0845 31.2116 44.7175 30.8386 44.2648 30.8386Z" fill="#D45F48"/>
<path d="M44.2648 34.1709H36.8878C36.4351 34.1709 36.0681 34.5439 36.0681 35.004C36.0681 35.4641 36.4351 35.8371 36.8878 35.8371H44.2648C44.7175 35.8371 45.0845 35.4641 45.0845 35.004C45.0845 34.5439 44.7175 34.1709 44.2648 34.1709Z" fill="#D45F48"/>
<path d="M44.2648 37.5034H36.8878C36.4351 37.5034 36.0681 37.8764 36.0681 38.3365C36.0681 38.7966 36.4351 39.1696 36.8878 39.1696H44.2648C44.7175 39.1696 45.0845 38.7966 45.0845 38.3365C45.0845 37.8764 44.7175 37.5034 44.2648 37.5034Z" fill="#D45F48"/>
<path d="M44.2648 40.8357H36.8878C36.4351 40.8357 36.0681 41.2087 36.0681 41.6688C36.0681 42.1289 36.4351 42.5019 36.8878 42.5019H44.2648C44.7175 42.5019 45.0845 42.1289 45.0845 41.6688C45.0845 41.2087 44.7175 40.8357 44.2648 40.8357Z" fill="#D45F48"/>
<path d="M30.3304 26.6726H22.1337C21.681 26.6726 21.314 27.0456 21.314 27.5057C21.314 27.9658 21.681 28.3388 22.1337 28.3388H30.3304C30.7831 28.3388 31.1501 27.9658 31.1501 27.5057C31.1501 27.0456 30.7831 26.6726 30.3304 26.6726Z" fill="#D45F48"/>
<path d="M44.2649 26.6726H33.6092C33.1565 26.6726 32.7895 27.0456 32.7895 27.5057C32.7895 27.9658 33.1565 28.3388 33.6092 28.3388H44.2649C44.7176 28.3388 45.0846 27.9658 45.0846 27.5057C45.0846 27.0456 44.7176 26.6726 44.2649 26.6726Z" fill="#D45F48"/>
<path d="M24.5927 45.0015H22.1337C21.681 45.0015 21.314 45.3745 21.314 45.8346C21.314 46.2947 21.681 46.6677 22.1337 46.6677H24.5927C25.0454 46.6677 25.4124 46.2947 25.4124 45.8346C25.4124 45.3745 25.0454 45.0015 24.5927 45.0015Z" fill="#D45F48"/>
<path d="M35.2485 45.0015H27.8714C27.4187 45.0015 27.0518 45.3745 27.0518 45.8346C27.0518 46.2947 27.4187 46.6677 27.8714 46.6677H35.2485C35.7012 46.6677 36.0682 46.2947 36.0682 45.8346C36.0682 45.3745 35.7012 45.0015 35.2485 45.0015Z" fill="#D45F48"/>
<path d="M44.2648 45.0015H38.5271C38.0744 45.0015 37.7075 45.3745 37.7075 45.8346C37.7075 46.2947 38.0744 46.6677 38.5271 46.6677H44.2648C44.7175 46.6677 45.0845 46.2947 45.0845 45.8346C45.0845 45.3745 44.7175 45.0015 44.2648 45.0015Z" fill="#D45F48"/>
<path d="M6.1501 33.3379C4.56568 33.3379 3.28125 34.6434 3.28125 36.2538C3.28125 37.8642 4.56568 39.1697 6.1501 39.1697C7.73453 39.1697 9.01895 37.8642 9.01895 36.2538C9.01895 34.6434 7.73453 33.3379 6.1501 33.3379ZM6.1501 37.5035C5.47106 37.5035 4.92059 36.944 4.92059 36.2538C4.92059 35.5636 5.47106 35.0041 6.1501 35.0041C6.82914 35.0041 7.37961 35.5636 7.37961 36.2538C7.37961 36.944 6.82914 37.5035 6.1501 37.5035Z" fill="#D45F48"/>
</svg>
