<svg width="50" height="50" viewBox="0 0 50 50" fill="none" xmlns="http://www.w3.org/2000/svg">
<path d="M10.85 4.99992C11.3102 4.99992 11.6833 4.62682 11.6833 4.16659C11.6833 3.70635 11.3102 3.33325 10.85 3.33325C10.3898 3.33325 10.0167 3.70635 10.0167 4.16659C10.0167 4.62682 10.3898 4.99992 10.85 4.99992Z" fill="#D45F48"/>
<path d="M7.51668 4.99992C7.97692 4.99992 8.35002 4.62682 8.35002 4.16659C8.35002 3.70635 7.97692 3.33325 7.51668 3.33325C7.05645 3.33325 6.68335 3.70635 6.68335 4.16659C6.68335 4.62682 7.05645 4.99992 7.51668 4.99992Z" fill="#D45F48"/>
<path d="M4.18337 4.99992C4.64361 4.99992 5.0167 4.62682 5.0167 4.16659C5.0167 3.70635 4.64361 3.33325 4.18337 3.33325C3.72313 3.33325 3.35004 3.70635 3.35004 4.16659C3.35004 4.62682 3.72313 4.99992 4.18337 4.99992Z" fill="#D45F48"/>
<path d="M45.8333 0H4.16667C1.86662 0.0027551 0.0027551 1.86662 0 4.16667V45.8333C0.0027551 48.1334 1.86662 49.9972 4.16667 50H45.8333C48.1334 49.9972 49.9972 48.1334 50 45.8333V4.16667C49.9972 1.86662 48.1334 0.0027551 45.8333 0ZM4.16667 1.66667H45.8333C47.214 1.66667 48.3333 2.78595 48.3333 4.16667V6.66667H1.66667V4.16667C1.66667 2.78595 2.78595 1.66667 4.16667 1.66667ZM45.8333 48.3333H4.16667C2.78595 48.3333 1.66667 47.214 1.66667 45.8333V8.33333H48.3333V45.8333C48.3333 47.214 47.214 48.3333 45.8333 48.3333Z" fill="#D45F48"/>
<path d="M44.1667 5C44.1667 5.46024 44.5398 5.83333 45 5.83333C45.4603 5.83333 45.8334 5.46024 45.8334 5C46.2936 5 46.6667 4.6269 46.6667 4.16667C46.6667 3.70643 46.2936 3.33333 45.8334 3.33333C45.8334 2.8731 45.4603 2.5 45 2.5C44.5398 2.5 44.1667 2.8731 44.1667 3.33333C43.7065 3.33333 43.3334 3.70643 43.3334 4.16667C43.3334 4.6269 43.7065 5 44.1667 5Z" fill="#D45F48"/>
<path d="M39.1666 4.99992H40.8333C41.2936 4.99992 41.6667 4.62682 41.6667 4.16659C41.6667 3.70635 41.2936 3.33325 40.8333 3.33325H39.1666C38.7064 3.33325 38.3333 3.70635 38.3333 4.16659C38.3333 4.62682 38.7064 4.99992 39.1666 4.99992Z" fill="#D45F48"/>
<path d="M5.83329 17.4999H29.1666C30.0871 17.4999 30.8333 16.7537 30.8333 15.8333V12.4999C30.8333 11.5794 30.0871 10.8333 29.1666 10.8333H5.83329C4.91282 10.8333 4.16663 11.5794 4.16663 12.4999V15.8333C4.16663 16.7537 4.91282 17.4999 5.83329 17.4999ZM5.83329 12.4999H29.1666V15.8333H5.83329V12.4999Z" fill="#D45F48"/>
<path d="M30.8333 20.0001C30.8333 19.5398 30.4602 19.1667 30 19.1667H5.83333C5.3731 19.1667 5 19.5398 5 20.0001C5 20.4603 5.3731 20.8334 5.83333 20.8334H30C30.4602 20.8334 30.8333 20.4603 30.8333 20.0001Z" fill="#D45F48"/>
<path d="M28.3333 23.3333C28.3333 22.8731 27.9602 22.5 27.5 22.5H5.83333C5.3731 22.5 5 22.8731 5 23.3333C5 23.7936 5.3731 24.1667 5.83333 24.1667H27.5C27.9602 24.1667 28.3333 23.7936 28.3333 23.3333Z" fill="#D45F48"/>
<path d="M26.6667 26.6668C26.6667 26.2066 26.2936 25.8335 25.8333 25.8335H5.83333C5.3731 25.8335 5 26.2066 5 26.6668C5 27.1271 5.3731 27.5002 5.83333 27.5002H25.8333C26.2936 27.5002 26.6667 27.1271 26.6667 26.6668Z" fill="#D45F48"/>
<path d="M5.83333 29.1667C5.3731 29.1667 5 29.5398 5 30.0001C5 30.4603 5.3731 30.8334 5.83333 30.8334H24.1667C24.6269 30.8334 25 30.4603 25 30.0001C25 29.5398 24.6269 29.1667 24.1667 29.1667H5.83333Z" fill="#D45F48"/>
<path d="M44.1666 33.3334H36.5375C48.9875 9.81503 44.1533 18.9484 45.4458 16.5067C46.3054 14.8791 45.685 12.8629 44.0591 12L42.5833 11.2209C40.9575 10.3633 38.9444 10.9837 38.0833 12.6075C24.8575 37.5934 27.66 32.2917 27.1083 33.3334H5.83329C4.91282 33.3334 4.16663 34.0796 4.16663 35V45C4.16663 45.9205 4.91282 46.6667 5.83329 46.6667H44.1666C45.0871 46.6667 45.8333 45.9205 45.8333 45V35C45.8333 34.0796 45.0871 33.3334 44.1666 33.3334ZM36.4341 19.2792L37.9075 20.0592L30.0783 34.8484C29.5344 34.6572 28.9709 34.5272 28.3983 34.4609L36.4341 19.2792ZM37.9941 16.3334L42.4108 18.6725L41.6308 20.1459L37.2141 17.8067L37.9941 16.3334ZM27.855 36.06C28.6224 36.1211 29.3722 36.3219 30.0675 36.6525C30.7311 37.041 31.318 37.5477 31.7991 38.1475L27.2158 42.0334L27.855 36.06ZM32.8166 36.8C32.4395 36.3637 32.0149 35.9708 31.5508 35.6284L39.3841 20.8392L40.8575 21.6184C39.75 23.6959 33.9166 34.7217 32.8166 36.8ZM41.8058 12.6942L43.2791 13.4742C44.0911 13.9048 44.4012 14.9113 43.9725 15.7242L43.1925 17.1975L38.7758 14.8584L39.555 13.385C39.9864 12.5735 40.9934 12.2645 41.8058 12.6942ZM44.1666 45H5.83329V35H26.2933C25.9833 37.8917 26.7808 30.4342 25.56 41.8575C25.4876 42.5353 25.8353 43.1888 26.4378 43.5076C27.0403 43.8264 27.7761 43.7461 28.2958 43.305C32.4516 39.7842 33.6575 38.7467 33.5666 38.8275C33.695 38.7134 33.4833 39.1084 35.655 35H44.1666V45Z" fill="#D45F48"/>
<path d="M9.16669 41.6667H7.50002C7.03978 41.6667 6.66669 42.0398 6.66669 42.5001C6.66669 42.9603 7.03978 43.3334 7.50002 43.3334H9.16669C9.62693 43.3334 10 42.9603 10 42.5001C10 42.0398 9.62693 41.6667 9.16669 41.6667Z" fill="#D45F48"/>
<path d="M14.1666 41.6667H12.5C12.0397 41.6667 11.6666 42.0398 11.6666 42.5001C11.6666 42.9603 12.0397 43.3334 12.5 43.3334H14.1666C14.6269 43.3334 15 42.9603 15 42.5001C15 42.0398 14.6269 41.6667 14.1666 41.6667Z" fill="#D45F48"/>
<path d="M19.1667 41.6667H17.5C17.0398 41.6667 16.6667 42.0398 16.6667 42.5001C16.6667 42.9603 17.0398 43.3334 17.5 43.3334H19.1667C19.6269 43.3334 20 42.9603 20 42.5001C20 42.0398 19.6269 41.6667 19.1667 41.6667Z" fill="#D45F48"/>
<path d="M23.3333 41.6667H22.5C22.0397 41.6667 21.6666 42.0398 21.6666 42.5001C21.6666 42.9603 22.0397 43.3334 22.5 43.3334H23.3333C23.7935 43.3334 24.1666 42.9603 24.1666 42.5001C24.1666 42.0398 23.7935 41.6667 23.3333 41.6667Z" fill="#D45F48"/>
<path d="M32.5 41.6667H31.6666C31.2064 41.6667 30.8333 42.0398 30.8333 42.5001C30.8333 42.9603 31.2064 43.3334 31.6666 43.3334H32.5C32.9602 43.3334 33.3333 42.9603 33.3333 42.5001C33.3333 42.0398 32.9602 41.6667 32.5 41.6667Z" fill="#D45F48"/>
<path d="M35 42.5001C35 42.9603 35.3731 43.3334 35.8333 43.3334H37.5C37.9602 43.3334 38.3333 42.9603 38.3333 42.5001C38.3333 42.0398 37.9602 41.6667 37.5 41.6667H35.8333C35.3731 41.6667 35 42.0398 35 42.5001Z" fill="#D45F48"/>
<path d="M40.8333 43.3334H42.5C42.9602 43.3334 43.3333 42.9603 43.3333 42.5001C43.3333 42.0398 42.9602 41.6667 42.5 41.6667H40.8333C40.3731 41.6667 40 42.0398 40 42.5001C40 42.9603 40.3731 43.3334 40.8333 43.3334Z" fill="#D45F48"/>
</svg>
